<svg id="calendar_1_" data-name="calendar (1)" xmlns="http://www.w3.org/2000/svg" width="10" height="10" viewBox="0 0 10 10">
  <path id="Path_12065" data-name="Path 12065" d="M10.852,8.247V3.639a.821.821,0,0,0-.82-.82H9.7V2.492a.492.492,0,1,0-.984,0V2.82H7.9V2.492a.492.492,0,1,0-.984,0V2.82H5.934V2.492a.492.492,0,0,0-.984,0V2.82h-.82V2.492a.492.492,0,0,0-.984,0V2.82H2.82a.821.821,0,0,0-.82.82V10.2a.821.821,0,0,0,.82.82H8.332a1.966,1.966,0,1,0,2.521-2.77Zm-1.8-5.755a.164.164,0,0,1,.328,0v.984a.164.164,0,0,1-.328,0Zm-1.8,0a.164.164,0,1,1,.328,0v.984a.164.164,0,0,1-.328,0Zm-1.967,0a.164.164,0,0,1,.328,0v.984a.164.164,0,0,1-.328,0Zm-1.8,0a.164.164,0,1,1,.328,0v.984a.164.164,0,1,1-.328,0Zm-.656.656h.328v.328a.492.492,0,0,0,.984,0V3.148h.82v.328a.492.492,0,0,0,.984,0V3.148h.984v.328a.492.492,0,1,0,.984,0V3.148h.82v.328a.492.492,0,1,0,.984,0V3.148h.328a.492.492,0,0,1,.492.492v.82h-8.2v-.82A.492.492,0,0,1,2.82,3.148Zm0,7.541a.492.492,0,0,1-.492-.492V4.787h8.2V8.13A1.872,1.872,0,0,0,9.7,8.1V7.246a.164.164,0,0,0-.164-.164H8.557a.164.164,0,0,0-.164.164V8.23a.164.164,0,0,0,.164.164h.39a1.956,1.956,0,0,0-.767,2.3ZM9.377,8.066H8.721V7.41h.656Zm.656,3.607a1.639,1.639,0,1,1,1.639-1.639A1.641,1.641,0,0,1,10.033,11.672Z" transform="translate(-2 -2)" fill="#fea150"/>
  <path id="Path_12066" data-name="Path 12066" d="M46.461,44.029V43h-.328v1.029a.313.313,0,0,0-.159.331l-.6.479.2.256.6-.479a.327.327,0,0,0,.283-.587Z" transform="translate(-38.264 -36.279)" fill="#fea150"/>
  <path id="Path_12067" data-name="Path 12067" d="M9.148,22H8.164A.164.164,0,0,0,8,22.164v.984a.164.164,0,0,0,.164.164h.984a.164.164,0,0,0,.164-.164v-.984A.164.164,0,0,0,9.148,22Zm-.164.984H8.328v-.656h.656Z" transform="translate(-7.016 -18.721)" fill="#fea150"/>
  <path id="Path_12068" data-name="Path 12068" d="M20.148,22h-.984a.164.164,0,0,0-.164.164v.984a.164.164,0,0,0,.164.164h.984a.164.164,0,0,0,.164-.164v-.984A.164.164,0,0,0,20.148,22Zm-.164.984h-.656v-.656h.656Z" transform="translate(-16.213 -18.721)" fill="#fea150"/>
  <path id="Path_12069" data-name="Path 12069" d="M31.148,22h-.984a.164.164,0,0,0-.164.164v.984a.164.164,0,0,0,.164.164h.984a.164.164,0,0,0,.164-.164v-.984A.164.164,0,0,0,31.148,22Zm-.164.984h-.656v-.656h.656Z" transform="translate(-25.41 -18.721)" fill="#fea150"/>
  <path id="Path_12070" data-name="Path 12070" d="M41.164,23.311h.984a.164.164,0,0,0,.164-.164v-.984A.164.164,0,0,0,42.148,22h-.984a.164.164,0,0,0-.164.164v.984A.164.164,0,0,0,41.164,23.311Zm.164-.984h.656v.656h-.656Z" transform="translate(-34.607 -18.721)" fill="#fea150"/>
  <path id="Path_12071" data-name="Path 12071" d="M9.148,33H8.164A.164.164,0,0,0,8,33.164v.984a.164.164,0,0,0,.164.164h.984a.164.164,0,0,0,.164-.164v-.984A.164.164,0,0,0,9.148,33Zm-.164.984H8.328v-.656h.656Z" transform="translate(-7.016 -27.918)" fill="#fea150"/>
  <path id="Path_12072" data-name="Path 12072" d="M20.148,33h-.984a.164.164,0,0,0-.164.164v.984a.164.164,0,0,0,.164.164h.984a.164.164,0,0,0,.164-.164v-.984A.164.164,0,0,0,20.148,33Zm-.164.984h-.656v-.656h.656Z" transform="translate(-16.213 -27.918)" fill="#fea150"/>
  <path id="Path_12073" data-name="Path 12073" d="M31.148,33h-.984a.164.164,0,0,0-.164.164v.984a.164.164,0,0,0,.164.164h.984a.164.164,0,0,0,.164-.164v-.984A.164.164,0,0,0,31.148,33Zm-.164.984h-.656v-.656h.656Z" transform="translate(-25.41 -27.918)" fill="#fea150"/>
  <path id="Path_12074" data-name="Path 12074" d="M9.148,44H8.164A.164.164,0,0,0,8,44.164v.984a.164.164,0,0,0,.164.164h.984a.164.164,0,0,0,.164-.164v-.984A.164.164,0,0,0,9.148,44Zm-.164.984H8.328v-.656h.656Z" transform="translate(-7.016 -37.115)" fill="#fea150"/>
  <path id="Path_12075" data-name="Path 12075" d="M20.148,44h-.984a.164.164,0,0,0-.164.164v.984a.164.164,0,0,0,.164.164h.984a.164.164,0,0,0,.164-.164v-.984A.164.164,0,0,0,20.148,44Zm-.164.984h-.656v-.656h.656Z" transform="translate(-16.213 -37.115)" fill="#fea150"/>
  <path id="Path_12076" data-name="Path 12076" d="M31.148,44h-.984a.164.164,0,0,0-.164.164v.984a.164.164,0,0,0,.164.164h.984a.164.164,0,0,0,.164-.164v-.984A.164.164,0,0,0,31.148,44Zm-.164.984h-.656v-.656h.656Z" transform="translate(-25.41 -37.115)" fill="#fea150"/>
</svg>
