<svg xmlns="http://www.w3.org/2000/svg" xmlns:xlink="http://www.w3.org/1999/xlink" width="10" height="10" viewBox="0 0 10 10">
  <defs>
    <clipPath id="clip-path">
      <path id="path1599" d="M0-682.665H10v10H0Z" transform="translate(0 682.665)" fill="none"/>
    </clipPath>
  </defs>
  <g id="g1593" transform="translate(0 0)">
    <g id="g1595">
      <g id="g1597" clip-path="url(#clip-path)">
        <g id="g1603" transform="translate(1.942 1.962)">
          <path id="path1605" d="M-228.948,0a3.058,3.058,0,0,1,2.712,3.038A3.058,3.058,0,0,1-229.294,6.1a3.058,3.058,0,0,1-3.058-3.058A3.058,3.058,0,0,1-229.644,0" transform="translate(232.351)" fill="rgba(0,0,0,0)" stroke="#fea150" stroke-linecap="round" stroke-linejoin="round" stroke-miterlimit="10" stroke-width="0.4"/>
        </g>
        <g id="g1607" transform="translate(1.081 1.081)">
          <path id="path1609" d="M-301.35-16.563h0a.763.763,0,0,0,.789.211.763.763,0,0,1,.972.561.763.763,0,0,0,.578.578.763.763,0,0,1,.561.972.763.763,0,0,0,.211.789.763.763,0,0,1,0,1.122.763.763,0,0,0-.211.789.763.763,0,0,1-.561.972.763.763,0,0,0-.578.578.763.763,0,0,1-.972.561.763.763,0,0,0-.789.211.763.763,0,0,1-1.122,0,.763.763,0,0,0-.789-.211.763.763,0,0,1-.972-.561.763.763,0,0,0-.578-.578.763.763,0,0,1-.561-.972.763.763,0,0,0-.211-.789.763.763,0,0,1,0-1.122.763.763,0,0,0,.211-.789.763.763,0,0,1,.561-.972.763.763,0,0,0,.578-.578.763.763,0,0,1,.972-.561.763.763,0,0,0,.789-.211A.763.763,0,0,1-301.35-16.563Z" transform="translate(305.83 16.809)" fill="none" stroke="#fea150" stroke-linecap="round" stroke-linejoin="round" stroke-miterlimit="10" stroke-width="0.4"/>
        </g>
        <g id="g1611" transform="translate(8.588 0.146)">
          <path id="path1613" d="M-82.417,0l-1.225,1.225" transform="translate(83.642)" fill="none" stroke="#fea150" stroke-linecap="round" stroke-linejoin="round" stroke-miterlimit="10" stroke-width="0.4"/>
        </g>
        <g id="g1615" transform="translate(9.2 2.089)">
          <path id="path1617" d="M0-11.242l.613-.167" transform="translate(0 11.409)" fill="none" stroke="#fea150" stroke-linecap="round" stroke-linejoin="round" stroke-miterlimit="10" stroke-width="0.4"/>
        </g>
        <g id="g1619" transform="translate(7.69 0.146)">
          <path id="path1621" d="M0-41.209l.167-.613" transform="translate(0 41.821)" fill="none" stroke="#fea150" stroke-linecap="round" stroke-linejoin="round" stroke-miterlimit="10" stroke-width="0.4"/>
        </g>
        <g id="g1623" transform="translate(0.187 0.146)">
          <path id="path1625" d="M0,0,1.225,1.225" fill="none" stroke="#fea150" stroke-linecap="round" stroke-linejoin="round" stroke-miterlimit="10" stroke-width="0.4"/>
        </g>
        <g id="g1627" transform="translate(0.187 2.089)">
          <path id="path1629" d="M-41.209-11.242l-.613-.167" transform="translate(41.821 11.409)" fill="none" stroke="#fea150" stroke-linecap="round" stroke-linejoin="round" stroke-miterlimit="10" stroke-width="0.4"/>
        </g>
        <g id="g1631" transform="translate(2.143 0.146)">
          <path id="path1633" d="M-11.242-41.209l-.167-.613" transform="translate(11.409 41.821)" fill="none" stroke="#fea150" stroke-linecap="round" stroke-linejoin="round" stroke-miterlimit="10" stroke-width="0.4"/>
        </g>
        <g id="g1635" transform="translate(8.588 8.628)">
          <path id="path1637" d="M-82.417-82.417l-1.225-1.225" transform="translate(83.642 83.642)" fill="none" stroke="#fea150" stroke-linecap="round" stroke-linejoin="round" stroke-miterlimit="10" stroke-width="0.4"/>
        </g>
        <g id="g1639" transform="translate(9.2 7.744)">
          <path id="path1641" d="M0,0,.613.167" fill="none" stroke="#fea150" stroke-linecap="round" stroke-linejoin="round" stroke-miterlimit="10" stroke-width="0.4"/>
        </g>
        <g id="g1643" transform="translate(7.69 9.241)">
          <path id="path1645" d="M0,0,.167.613" fill="none" stroke="#fea150" stroke-linecap="round" stroke-linejoin="round" stroke-miterlimit="10" stroke-width="0.4"/>
        </g>
        <g id="g1647" transform="translate(0.187 8.628)">
          <path id="path1649" d="M0-82.417l1.225-1.225" transform="translate(0 83.642)" fill="none" stroke="#fea150" stroke-linecap="round" stroke-linejoin="round" stroke-miterlimit="10" stroke-width="0.4"/>
        </g>
        <g id="g1651" transform="translate(0.187 7.744)">
          <path id="path1653" d="M-41.209,0l-.613.167" transform="translate(41.821)" fill="none" stroke="#fea150" stroke-linecap="round" stroke-linejoin="round" stroke-miterlimit="10" stroke-width="0.4"/>
        </g>
        <g id="g1655" transform="translate(2.143 9.241)">
          <path id="path1657" d="M-11.242,0l-.167.613" transform="translate(11.409)" fill="none" stroke="#fea150" stroke-linecap="round" stroke-linejoin="round" stroke-miterlimit="10" stroke-width="0.4"/>
        </g>
        <g id="g1659" transform="translate(2.974 3.473)">
          <path id="path1661" d="M-185.685-141.552l1.2-1.2a.307.307,0,0,0,0-.435l-.378-.378a.307.307,0,0,0-.435,0l-1.593,1.593-.625-.625a.307.307,0,0,0-.435,0l-.408.408a.307.307,0,0,0,0,.435l1.045,1.045a.555.555,0,0,0,.784,0l.36-.36" transform="translate(188.446 143.657)" fill="none" stroke="#fea150" stroke-linecap="round" stroke-linejoin="round" stroke-miterlimit="10" stroke-width="0.4"/>
        </g>
      </g>
    </g>
  </g>
</svg>
