<svg xmlns="http://www.w3.org/2000/svg" width="15" height="15" viewBox="0 0 15 15">
  <g id="home" transform="translate(-2 -1.822)">
    <path id="Path_10051" data-name="Path 10051" d="M9.375,17.5a.375.375,0,0,0,0,.75h3.748a.375.375,0,1,0,0-.75Z" transform="translate(-1.749 -4.028)" fill="#b8b8b8"/>
    <path id="Path_10052" data-name="Path 10052" d="M11.127,2.382a2.643,2.643,0,0,0-3.253,0L3,6.2A2.594,2.594,0,0,0,2,8.239V14.22a2.614,2.614,0,0,0,2.625,2.6h9.75A2.614,2.614,0,0,0,17,14.22V8.239A2.594,2.594,0,0,0,16,6.2Zm-2.788.583a1.888,1.888,0,0,1,2.324,0L15.537,6.78a1.853,1.853,0,0,1,.713,1.459V14.22a1.867,1.867,0,0,1-1.875,1.858H4.625A1.867,1.867,0,0,1,2.75,14.22V8.239A1.852,1.852,0,0,1,3.463,6.78Z" transform="translate(0 0)" fill="#b8b8b8" fill-rule="evenodd"/>
  </g>
</svg>
