<svg xmlns="http://www.w3.org/2000/svg" width="16.826" height="16" viewBox="0 0 16.826 16">
  <g id="tv" transform="translate(-21.5 -23.587)">
    <path id="Path_13843" data-name="Path 13843" d="M36.644,27.7H30.73L34,24.432a.495.495,0,1,0-.7-.7l-3.39,3.389-3.39-3.389a.495.495,0,1,0-.7.7L29.1,27.7H23.183A1.685,1.685,0,0,0,21.5,29.387V37.9a1.685,1.685,0,0,0,1.683,1.683H36.644A1.685,1.685,0,0,0,38.327,37.9V29.387A1.685,1.685,0,0,0,36.644,27.7Zm.693,10.2a.694.694,0,0,1-.693.693H23.183a.694.694,0,0,1-.693-.693V29.387a.694.694,0,0,1,.693-.693H36.644a.694.694,0,0,1,.693.693Z" transform="translate(0 0)" fill="#b8b8b8"/>
    <path id="Path_13844" data-name="Path 13844" d="M55.32,59.417,50.783,56.8a.495.495,0,0,0-.742.429v5.238a.495.495,0,0,0,.742.429l4.537-2.619a.5.5,0,0,0,0-.857Zm-4.289,2.191V58.083l3.052,1.762Z" transform="translate(-22.891 -26.583)" fill="#b8b8b8"/>
  </g>
</svg>
