<svg id="next" xmlns="http://www.w3.org/2000/svg" width="46.412" height="50"
    viewBox="0 0 49.412 50">
    <path id="Path_24862" data-name="Path 24862"
        d="M41.662,9.317a24.983,24.983,0,0,0-35.333,0,1.779,1.779,0,0,0,2.516,2.516,21.414,21.414,0,1,1,0,30.337,1.779,1.779,0,1,0-2.516,2.516A25,25,0,1,0,41.662,9.317Z"
        transform="translate(-2.581 -1.999)" />
    <path id="Path_24863" data-name="Path 24863"
        d="M25.039,28.366A1.792,1.792,0,1,0,27.573,30.9L36.5,21.977a1.785,1.785,0,0,0,0-2.534l-8.923-8.923a1.792,1.792,0,1,0-2.534,2.534l5.889,5.871H5.785a1.785,1.785,0,1,0,0,3.569H30.928Z"
        transform="translate(-4 4.275)" />
</svg>
