<svg xmlns="http://www.w3.org/2000/svg" width="14.175" height="16.314" viewBox="0 0 14.175 16.314">
  <g id="user" transform="translate(-2.66 -1.25)">
    <path id="Path_10061" data-name="Path 10061" d="M10.613,9.976a4.363,4.363,0,1,1,4.363-4.363A4.369,4.369,0,0,1,10.613,9.976Zm0-7.588a3.225,3.225,0,1,0,3.225,3.225A3.232,3.232,0,0,0,10.613,2.388Z" transform="translate(-0.866)" fill="#b8b8b8"/>
    <path id="Path_10062" data-name="Path 10062" d="M16.266,20.7a.573.573,0,0,1-.569-.569c0-2.618-2.671-4.743-5.949-4.743S3.8,17.513,3.8,20.131a.569.569,0,1,1-1.138,0c0-3.24,3.179-5.881,7.087-5.881s7.087,2.641,7.087,5.881A.573.573,0,0,1,16.266,20.7Z" transform="translate(0 -3.135)" fill="#b8b8b8"/>
  </g>
</svg>
