<svg xmlns="http://www.w3.org/2000/svg" width="150.794" height="128.759" viewBox="0 0 150.794 128.759">
  <g id="Enter_OTP-cuate" data-name="Enter OTP-cuate" transform="translate(-42.92 -38.09)">
    <g id="freepik--background-complete--inject-36" transform="translate(42.92 38.09)">
      <rect id="Rectangle_37995" data-name="Rectangle 37995" width="10.085" height="3.21" transform="translate(138.022 104.19) rotate(180)" fill="#ebebeb"/>
      <rect id="Rectangle_37996" data-name="Rectangle 37996" width="10.085" height="3.21" transform="translate(51.808 52.457) rotate(180)" fill="#ebebeb"/>
      <path id="Path_24612" data-name="Path 24612" d="M421.516,407.1l5.077-.086,2.51-.034h2.5l-.132.132V403.9l.143.143-5.043-.02L424.049,404l-2.521-.031.069-.066Zm0,0-.066-3.21v-.075h.069l2.521-.032,2.521-.026,5.043-.017h.143v3.485h-2.673l-2.533-.034Z" transform="translate(-287.955 -298.859)" fill="#ebebeb"/>
      <path id="Path_24613" data-name="Path 24613" d="M254.329,323.67l5.077-.083,2.51-.034,2.5-.014-.132.132v-3.21l.143.143-5.043-.02-2.521-.023-2.521-.032.069-.069Zm0,0-.069-3.21v-.066h.069l2.521-.032,2.521-.023,5.043-.02h.143v.143l-.014,3.207v.132h-.129l-2.544-.014-2.533-.034Z" transform="translate(-193.64 -239.366)" fill="#ebebeb"/>
      <path id="Path_24614" data-name="Path 24614" d="M273.939,337.846l5.077-.083,2.51-.034,2.5-.014-.132.132v-3.21l.143.143-5.043-.02-2.521-.023-2.521-.032.069-.069Zm0,0-.069-3.2v-.066h.069l2.521-.032,2.521-.023,5.043-.02h.143V338h-.129l-2.544-.014-2.533-.034Z" transform="translate(-207.625 -249.486)" fill="#ebebeb"/>
      <rect id="Rectangle_37997" data-name="Rectangle 37997" width="10.085" height="3.21" transform="translate(82.001 84.313) rotate(180)" fill="#ebebeb"/>
      <rect id="Rectangle_37998" data-name="Rectangle 37998" width="10.085" height="3.21" transform="translate(10.154 108.237) rotate(180)" fill="#ebebeb"/>
      <rect id="Rectangle_37999" data-name="Rectangle 37999" width="10.085" height="3.21" transform="translate(15.779 5.175) rotate(180)" fill="#ebebeb"/>
      <path id="Path_24615" data-name="Path 24615" d="M42.989,61.893l5.077-.083,2.51-.034h2.5l-.132.129v-3.21l.143.143-5.043-.02-2.518-.034L43,58.752l.054-.08Zm0,0-.069-3.221v-.066h.069l2.536-.02,2.521-.026,5.043-.02h.143v3.474H50.558l-2.533-.034Z" transform="translate(-42.92 -52.674)" fill="#ebebeb"/>
      <path id="Path_24616" data-name="Path 24616" d="M401.9,47.783l5.077-.083,2.51-.034h2.5l-.132.129v-3.21l.143.143-5.043-.02-2.521-.023-2.521-.032.069-.069Zm0,0-.069-3.21v-.066h.069l2.521-.032,2.521-.026,5.043-.02h.143v.143l-.014,3.21v.132H409.44l-2.533-.034Z" transform="translate(-273.962 -42.611)" fill="#ebebeb"/>
      <path id="Path_24617" data-name="Path 24617" d="M329.359,388.592h33.491l1.079-21.252H328.28Z" transform="translate(-221.509 -272.899)" fill="#ebebeb"/>
      <path id="Path_24618" data-name="Path 24618" d="M365.914,382.893H336.393l-.393-7.4h30.4Zm-29.257-.287h28.97l.439-6.83H336.287Z" transform="translate(-227.015 -278.712)" fill="#dbdbdb"/>
      <path id="Path_24619" data-name="Path 24619" d="M367.773,414.273H339.5l-.33-6.683h29.022Zm-28-.287h27.743l.381-6.11H339.471Z" transform="translate(-229.275 -301.604)" fill="#dbdbdb"/>
      <path id="Path_24620" data-name="Path 24620" d="M384.508,386.744h-6.276l-.232-1.8h6.741Zm-6.024-.287h5.771l.161-1.231h-6.089Z" transform="translate(-256.968 -285.451)" fill="#dbdbdb"/>
      <path id="Path_24621" data-name="Path 24621" d="M384.508,417.9h-6.276L378,416.09h6.741Zm-6.024-.287h5.771l.161-1.233h-6.089Z" transform="translate(-256.968 -307.666)" fill="#dbdbdb"/>
      <path id="Path_24622" data-name="Path 24622" d="M342.617,441.43l-.324,2.315-.654,4.652H340.36V441.43Z" transform="translate(-230.124 -325.738)" fill="#ebebeb"/>
      <path id="Path_24623" data-name="Path 24623" d="M342.617,441.43l-.324,2.315H340.36V441.43Z" transform="translate(-230.124 -325.738)" fill="#dbdbdb"/>
      <path id="Path_24624" data-name="Path 24624" d="M432.61,441.43l.324,2.315.654,4.652h1.279V441.43Z" transform="translate(-295.913 -325.738)" fill="#ebebeb"/>
      <path id="Path_24625" data-name="Path 24625" d="M432.61,441.43l.324,2.315h1.933V441.43Z" transform="translate(-295.913 -325.738)" fill="#dbdbdb"/>
      <path id="Path_24626" data-name="Path 24626" d="M339.376,79.578H291.17V38.09h48.206Zm-47.919-.287h47.632V38.377H291.457Z" transform="translate(-195.044 -38.09)" fill="#ebebeb"/>
      <path id="Path_24627" data-name="Path 24627" d="M296.7,42.168a.574.574,0,1,1-.163-.415A.574.574,0,0,1,296.7,42.168Z" transform="translate(-198.168 -40.579)" fill="#a6a6a6"/>
      <path id="Path_24628" data-name="Path 24628" d="M305.048,42.168a.574.574,0,1,1-.163-.415A.574.574,0,0,1,305.048,42.168Z" transform="translate(-204.123 -40.579)" fill="#ebebeb"/>
      <path id="Path_24629" data-name="Path 24629" d="M313.4,42.168a.574.574,0,1,1-.168-.42A.574.574,0,0,1,313.4,42.168Z" transform="translate(-210.077 -40.578)" fill="#fea150"/>
      <rect id="Rectangle_38000" data-name="Rectangle 38000" width="47.919" height="0.287" transform="translate(96.27 2.874)" fill="#ebebeb"/>
    </g>
    <g id="freepik--Plant--inject-36" transform="translate(157.044 121.799)">
      <path id="Path_24630" data-name="Path 24630" d="M372.878,337.043a12.544,12.544,0,0,1-.238,4.836,13.347,13.347,0,0,1-.74,2.137,5.5,5.5,0,0,0-.691,2.716c.095.063-.227.054-.238-.04-2.582-1.474-5.9-1.744-7.894-4.153a8.275,8.275,0,0,1-1.646-4.016,12.3,12.3,0,0,1,.095-4.876,4.953,4.953,0,0,1,2.341-3.221,5.871,5.871,0,0,1,4.282-.189C371.034,331.125,372.471,334.249,372.878,337.043Z" transform="translate(-359.134 -329.925)" fill="#fea150"/>
      <path id="Path_24631" data-name="Path 24631" d="M379.634,363.264c-.356-1.176-.708-2.355-1.07-3.528-.708-2.295-1.449-4.589-2.266-6.855q-.731-2.037-1.546-4.03a24.643,24.643,0,0,1,.307-2.5c.218-1,.531-1.973.823-2.954.017-.06-.08-.092-.1-.034a13.282,13.282,0,0,0-1.36,4.684c-.631-1.506-1.305-2.989-2.034-4.452a19.094,19.094,0,0,1,.115-3.706c0-.057-.077-.075-.086-.017a12.987,12.987,0,0,0-.252,3.273q-.835-1.649-1.767-3.253c-.057-.095-.189,0-.141.1q1.46,2.808,2.722,5.719a12.457,12.457,0,0,0-4.059-2.346c-.063-.026-.112.069-.046.1a14.82,14.82,0,0,1,4.389,2.9q.912,2.131,1.738,4.3a13.5,13.5,0,0,0-5.978-3.19c-.072-.02-.092.092-.023.115a16.44,16.44,0,0,1,6.293,3.841c.218.574.433,1.167.645,1.75q1.2,3.327,2.295,6.692.519,1.615,1.027,3.23c.361,1.162.645,2.386,1.116,3.505.043.109.235.083.212-.043A33.558,33.558,0,0,0,379.634,363.264Z" transform="translate(-364.559 -336.994)" fill="#263238"/>
      <path id="Path_24632" data-name="Path 24632" d="M389.182,346.76a6.5,6.5,0,0,0-.932,2.323c0,.02.031.034.037,0a19.94,19.94,0,0,1,1.013-2.277C389.326,346.74,389.228,346.694,389.182,346.76Z" transform="translate(-378.402 -341.908)" fill="#263238"/>
      <path id="Path_24633" data-name="Path 24633" d="M369.579,363.69a6.854,6.854,0,0,0-2.32-.78c-.023,0-.034.029-.014.037.376.155.766.264,1.147.407s.749.324,1.133.456a.066.066,0,0,0,.055-.12Z" transform="translate(-363.414 -353.449)" fill="#263238"/>
      <path id="Path_24634" data-name="Path 24634" d="M368.882,341.845a4.384,4.384,0,0,0-.749-.462.04.04,0,0,0-.043.066,4.622,4.622,0,0,0,.737.476C368.876,341.962,368.916,341.882,368.882,341.845Z" transform="translate(-364.016 -338.094)" fill="#263238"/>
      <path id="Path_24635" data-name="Path 24635" d="M412.3,350.238c-1.862.554-3.729,1.064-5.6,1.612-.161.049-3.31-5.989-2.174-9.1a10.176,10.176,0,0,1,6.336-6.009,8.6,8.6,0,0,1,4.371-.522,3.655,3.655,0,0,1,2.538,2.475,10.438,10.438,0,0,1,.066,5.134,8.964,8.964,0,0,1-1.833,4.191A7.24,7.24,0,0,1,412.3,350.238Z" transform="translate(-389.834 -334.334)" fill="#fea150"/>
      <path id="Path_24636" data-name="Path 24636" d="M414.225,353.721a24.73,24.73,0,0,1-3.654,1.434,15.411,15.411,0,0,0-2.438.881c.786-1.753,1.652-3.471,2.567-5.163a8.4,8.4,0,0,0,3.379-1.744.053.053,0,1,0-.069-.08,16.809,16.809,0,0,1-3.187,1.6c.25-.456.5-.915.754-1.371.069-.126-.106-.252-.189-.129a38.985,38.985,0,0,0-2.647,4.446,20.123,20.123,0,0,1-.192-4.073.029.029,0,0,0-.054,0A13.561,13.561,0,0,0,408.54,354c-.654,1.305-1.251,2.642-1.784,3.993-.212-.812-.488-1.612-.674-2.432a11.187,11.187,0,0,1-.267-3.585.029.029,0,0,0-.055,0,12.638,12.638,0,0,0,.783,6.6c-.313.815-.608,1.632-.881,2.45a48.846,48.846,0,0,0-2.473,12.931.077.077,0,1,0,.155,0,64.212,64.212,0,0,1,2.779-12.779c.539-1.623,1.162-3.2,1.844-4.75,1.1-.324,2.2-.766,3.279-1.147a10.361,10.361,0,0,0,3.02-1.483A.041.041,0,0,0,414.225,353.721Z" transform="translate(-389.056 -343.554)" fill="#263238"/>
      <path id="Path_24637" data-name="Path 24637" d="M439.3,359.254c-1.147.4-2.22.972-3.359,1.383-.052.02-.023.1.032.095a7.675,7.675,0,0,0,3.37-1.411C439.382,359.288,439.342,359.239,439.3,359.254Z" transform="translate(-412.395 -350.839)" fill="#263238"/>
      <path id="Path_24638" data-name="Path 24638" d="M414.124,350.526c.014-.06-.075-.095-.095-.034a5.81,5.81,0,0,0-.224,3.238c0,.043.077.046.08,0A18.1,18.1,0,0,1,414.124,350.526Z" transform="translate(-396.522 -344.57)" fill="#263238"/>
      <path id="Path_24639" data-name="Path 24639" d="M430.446,342.132a2.774,2.774,0,0,0-.493,1.784c0,.04.066.066.077.017.138-.6.37-1.147.554-1.721a.08.08,0,1,0-.138-.08Z" transform="translate(-408.138 -338.602)" fill="#263238"/>
      <path id="Path_24640" data-name="Path 24640" d="M354.226,385.375c.548,1.735,1.844,4.13,3.9,4.151,1.331,0,2.673-.146,4.016-.164,1.434-.023,2.868-.02,4.3.066a8.01,8.01,0,0,0-3.608-6.373,10.735,10.735,0,0,0-3.236-1.007,15.035,15.035,0,0,0-3.821-.4c-.789.032-1.434.2-1.721,1.01A4.555,4.555,0,0,0,354.226,385.375Z" transform="translate(-353.915 -366.81)" fill="#fea150"/>
      <path id="Path_24641" data-name="Path 24641" d="M359.864,385.052c.835.215,1.678.462,2.516.729a9.06,9.06,0,0,0-.691-.677c-.361-.287-.757-.539-1.147-.8-.032-.023,0-.083.029-.069a4.724,4.724,0,0,1,2.028,1.615c1.044.336,2.08.708,3.078,1.119A11.761,11.761,0,0,1,367.643,388a7.916,7.916,0,0,0-.711-1.239,6.927,6.927,0,0,0-1.672-1.34.054.054,0,0,1,.055-.092A4.9,4.9,0,0,1,368,388.239a11.446,11.446,0,0,1,1.951,1.773,15.07,15.07,0,0,1,4.07,9.529c0,.083-.132.106-.149.02a19.459,19.459,0,0,0-4.337-9.319c-.164-.189-.33-.37-.5-.545a15.2,15.2,0,0,0-1.879-.138c-.731,0-1.457.106-2.186.166a6.351,6.351,0,0,1-3.611-.493c-.046-.026-.014-.109.04-.089,2.412.878,4.942-.238,7.363.287a11.318,11.318,0,0,0-3.568-2.295l-.221-.089c-1.549.186-3.184.588-4.693.086a.037.037,0,0,1,.017-.072c1.46.364,2.868-.095,4.3-.166-1.566-.611-3.155-1.1-4.733-1.7C359.724,385.135,359.721,385.026,359.864,385.052Z" transform="translate(-358.082 -368.655)" fill="#263238"/>
      <path id="Path_24642" data-name="Path 24642" d="M357.639,392.406a21.226,21.226,0,0,0,2.255.169.016.016,0,0,1,0,.032,4.707,4.707,0,0,1-2.275-.143.03.03,0,0,1,.02-.057Z" transform="translate(-356.542 -374.483)" fill="#263238"/>
      <path id="Path_24643" data-name="Path 24643" d="M375.29,387.213a3.689,3.689,0,0,1,1.116.777c.037.034-.014.1-.057.072-.189-.138-.384-.267-.574-.393a5.3,5.3,0,0,1-.545-.344A.065.065,0,0,1,375.29,387.213Z" transform="translate(-369.099 -370.778)" fill="#263238"/>
      <path id="Path_24644" data-name="Path 24644" d="M417.808,392.969c-.026.057.057.112.089.052h0a.083.083,0,0,0,.055.034,34.282,34.282,0,0,0,4.211.729,5.333,5.333,0,0,0,3.442-.493,4.3,4.3,0,0,0,1.506-4.8c-.86-1.8-3.462-.823-4.764-.184A9.563,9.563,0,0,0,417.808,392.969Z" transform="translate(-399.478 -370.953)" fill="#fea150"/>
      <path id="Path_24645" data-name="Path 24645" d="M403.876,396.4a13.5,13.5,0,0,1,2.51-1.91,8.583,8.583,0,0,1,2.541-2.581c.052-.034.092.043.049.077a11.565,11.565,0,0,0-2.146,2.237,23.769,23.769,0,0,1,3.155-1.434,4.2,4.2,0,0,1,1.692-1.692s.032,0,.017.023a6.886,6.886,0,0,0-1.526,1.6c.637-.238,1.285-.459,1.93-.674.057-.017.077.069.023.092-1.147.447-2.323.921-3.462,1.469a13.354,13.354,0,0,0,4.194-.014c.037,0,.055.049.017.06a8.281,8.281,0,0,1-4.449.066,21.369,21.369,0,0,0-2.111,1.182,5.313,5.313,0,0,1,1.707.141,13.018,13.018,0,0,0,3,.338.034.034,0,0,1,0,.069c-1.738.287-3.382-.49-5.106-.287a13.325,13.325,0,0,0-1.793,1.466,13.523,13.523,0,0,0-2.622,3.7c-.726,1.477-1.119,3.04-1.7,4.566a.055.055,0,0,1-.106-.029A16.081,16.081,0,0,1,403.876,396.4Z" transform="translate(-386.555 -373.553)" fill="#263238"/>
      <path id="Path_24646" data-name="Path 24646" d="M432.574,392.912a1.959,1.959,0,0,1,.445-.539,1.758,1.758,0,0,1,.513-.384.017.017,0,0,1,.017.029c-.143.163-.341.287-.493.436s-.287.338-.442.49C432.594,392.966,432.562,392.938,432.574,392.912Z" transform="translate(-410.01 -374.186)" fill="#263238"/>
      <path id="Path_24647" data-name="Path 24647" d="M442.48,397.613c.255-.066.531-.06.792-.115s.511-.149.769-.229a.032.032,0,0,1,.023.057,2.553,2.553,0,0,1-1.583.367.04.04,0,0,1,0-.08Z" transform="translate(-417.048 -377.952)" fill="#263238"/>
      <path id="Path_24648" data-name="Path 24648" d="M389.33,426.19l.229,2.59.774,8.748h6.85l.97-8.748.284-2.59Z" transform="translate(-379.172 -398.578)" fill="#37474f"/>
      <path id="Path_24649" data-name="Path 24649" d="M389.33,426.19l.229,2.59h8.594l.284-2.59Z" transform="translate(-379.172 -398.578)" fill="#263238"/>
      <rect id="Rectangle_38001" data-name="Rectangle 38001" width="10.464" height="2.103" transform="translate(19.945 29.006) rotate(180)" fill="#37474f"/>
    </g>
    <g id="freepik--Floor--inject-36" transform="translate(44.216 160.606)">
      <path id="Path_24650" data-name="Path 24650" d="M47.44,465.363l18.687-.069,18.687-.026,37.374-.049,37.374.049,18.687.026,18.687.069-18.687.072-18.687.026-37.374.046-37.374-.046-18.687-.026Z" transform="translate(-47.44 -465.22)" fill="#263238"/>
    </g>
    <g id="freepik--Screen--inject-36" transform="translate(66.044 43.33)">
      <rect id="Rectangle_38002" data-name="Rectangle 38002" width="105.633" height="66.827" transform="translate(0.069 0.077)" fill="#fff"/>
      <path id="Path_24651" data-name="Path 24651" d="M171.325,123.264l-105.636.043h-.043v-.043L65.62,56.432V56.36h.069l105.636.043h.026v.029Zm0,0L171.3,56.432l.029.026L65.689,56.5l.072-.069-.026,66.833-.046-.046Z" transform="translate(-65.62 -56.36)" fill="#263238"/>
      <rect id="Rectangle_38003" data-name="Rectangle 38003" width="105.633" height="2.57" transform="translate(0.069 0.077)" fill="#263238"/>
      <path id="Path_24652" data-name="Path 24652" d="M71.928,59.819a.516.516,0,1,1-.151-.368A.519.519,0,0,1,71.928,59.819Z" transform="translate(-69.378 -58.457)" fill="#fea150"/>
      <path id="Path_24653" data-name="Path 24653" d="M79.308,59.819a.516.516,0,1,1-.151-.368A.519.519,0,0,1,79.308,59.819Z" transform="translate(-74.642 -58.457)" fill="#fff"/>
      <path id="Path_24654" data-name="Path 24654" d="M86.678,59.819a.516.516,0,1,1-.151-.368A.519.519,0,0,1,86.678,59.819Z" transform="translate(-79.898 -58.457)" fill="#455a64"/>
      <rect id="Rectangle_38004" data-name="Rectangle 38004" width="10.917" height="14.316" transform="translate(21.131 34.988)" fill="#ebebeb"/>
      <rect id="Rectangle_38005" data-name="Rectangle 38005" width="10.917" height="14.316" transform="translate(34.28 34.988)" fill="#ebebeb"/>
      <rect id="Rectangle_38006" data-name="Rectangle 38006" width="10.917" height="14.316" transform="translate(47.428 34.988)" fill="#ebebeb"/>
      <rect id="Rectangle_38007" data-name="Rectangle 38007" width="10.917" height="14.316" transform="translate(60.577 34.988)" fill="#ebebeb"/>
      <rect id="Rectangle_38008" data-name="Rectangle 38008" width="10.917" height="14.316" transform="translate(73.725 34.988)" fill="#ebebeb"/>
      <path id="Path_24655" data-name="Path 24655" d="M154.016,193.4a2.607,2.607,0,0,1,.78,1.879,2.65,2.65,0,0,1-.78,1.87,2.607,2.607,0,0,1-1.87.78h-.02a2.581,2.581,0,0,1-1.859-.78.574.574,0,0,1,0-.861.605.605,0,0,1,.861,0,1.385,1.385,0,0,0,1.024.427,1.4,1.4,0,0,0,1.015-.427,1.43,1.43,0,0,0-1.007-2.45,1.411,1.411,0,0,0-1.024.419.605.605,0,0,1-.861,0c-.043-.043-.077-.1-.118-.141s0-.032,0-.032a.086.086,0,0,0-.023-.055v-.095a.479.479,0,0,1,0-.181l.321-2.768a.631.631,0,0,1,.267-.427c.02,0,.032,0,.043-.023s.02,0,.032-.02a.574.574,0,0,1,.287-.066h3.155a.605.605,0,1,1,0,1.208h-2.63l-.126,1.058a2.776,2.776,0,0,1,.714-.095A2.607,2.607,0,0,1,154.016,193.4Z" transform="translate(-125.849 -151.985)" fill="#c7c7c7"/>
      <path id="Path_24656" data-name="Path 24656" d="M199.879,193.358a2.619,2.619,0,0,1,.78,1.87,2.653,2.653,0,0,1-4.532,1.882.608.608,0,1,1,.861-.861,1.434,1.434,0,0,0,1.015.416,1.483,1.483,0,0,0,1.027-.416,1.434,1.434,0,0,0,.427-1.027,1.4,1.4,0,0,0-.427-1.015,1.434,1.434,0,0,0-1.015-.427.522.522,0,0,1-.439-.192h0a.608.608,0,0,1-.02-.86l1.09-1.11h-1.721a.605.605,0,0,1,0-1.208h3.155a.6.6,0,0,1,.611.6.649.649,0,0,1-.075.287.831.831,0,0,1-.109.149l-1.388,1.391A2.473,2.473,0,0,1,199.879,193.358Z" transform="translate(-158.566 -151.959)" fill="#c7c7c7"/>
      <path id="Path_24657" data-name="Path 24657" d="M245.719,193.358a2.619,2.619,0,0,1,.78,1.87,2.653,2.653,0,0,1-4.532,1.882.608.608,0,0,1,.86-.861,1.434,1.434,0,0,0,1.015.416,1.483,1.483,0,0,0,1.027-.416,1.434,1.434,0,0,0,.427-1.027,1.4,1.4,0,0,0-.427-1.015,1.434,1.434,0,0,0-1.015-.427.522.522,0,0,1-.439-.192h0a.6.6,0,0,1-.02-.86l1.09-1.11h-1.721a.605.605,0,0,1,0-1.208h3.155a.6.6,0,0,1,.611.6.648.648,0,0,1-.077.287.7.7,0,0,1-.106.149L245,192.831A2.473,2.473,0,0,1,245.719,193.358Z" transform="translate(-191.257 -151.959)" fill="#c7c7c7"/>
      <path id="Path_24658" data-name="Path 24658" d="M292.031,195.351a2.556,2.556,0,1,1-3.964-2.128,1.721,1.721,0,0,1-.353-1.058,1.764,1.764,0,1,1,3.528,0,1.721,1.721,0,0,1-.353,1.058A2.564,2.564,0,0,1,292.031,195.351Zm-1.165,0a1.421,1.421,0,1,0-1.377,1.377A1.391,1.391,0,0,0,290.866,195.351Zm-1.988-3.187a.6.6,0,1,0,.6-.6A.6.6,0,0,0,288.878,192.164Z" transform="translate(-223.443 -151.953)" fill="#c7c7c7"/>
      <rect id="Rectangle_38009" data-name="Rectangle 38009" width="15.524" height="4.865" transform="translate(45.125 54.315)" fill="#fea150"/>
      <path id="Path_24659" data-name="Path 24659" d="M234.381,252.243a.126.126,0,0,1,.178-.017.792.792,0,0,0,.459.186.525.525,0,0,0,.287-.089.224.224,0,0,0,.1-.175.144.144,0,0,0-.02-.077.287.287,0,0,0-.072-.072.975.975,0,0,0-.33-.112h0a1.4,1.4,0,0,1-.31-.095.528.528,0,0,1-.224-.186.387.387,0,0,1-.055-.2.439.439,0,0,1,.192-.35.7.7,0,0,1,.416-.129.967.967,0,0,1,.525.192.123.123,0,0,1,.032.172.121.121,0,0,1-.169.037.691.691,0,0,0-.387-.155.476.476,0,0,0-.27.08.192.192,0,0,0-.092.152.129.129,0,0,0,.017.069.23.23,0,0,0,.066.06.788.788,0,0,0,.287.106h0a1.512,1.512,0,0,1,.333.1.591.591,0,0,1,.241.2.4.4,0,0,1,.057.2.47.47,0,0,1-.207.373.766.766,0,0,1-.445.138,1.035,1.035,0,0,1-.617-.241A.129.129,0,0,1,234.381,252.243Z" transform="translate(-185.949 -195.12)" fill="#fff"/>
      <path id="Path_24660" data-name="Path 24660" d="M240.944,252.8a.694.694,0,0,1-.694-.7v-.861a.129.129,0,0,1,.132-.132.135.135,0,0,1,.135.132v.86a.43.43,0,0,0,.861,0v-.861a.135.135,0,0,1,.267,0v.861a.7.7,0,0,1-.7.7Z" transform="translate(-190.16 -195.249)" fill="#fff"/>
      <path id="Path_24661" data-name="Path 24661" d="M247.06,252.652v-1.42a.132.132,0,0,1,.132-.132h.341a.456.456,0,0,1,.456.456.442.442,0,0,1-.092.287.513.513,0,0,1-.281.949h-.424a.135.135,0,0,1-.132-.141Zm.267-.9h.207a.192.192,0,0,0,.189-.2.189.189,0,0,0-.189-.189h-.2Zm0,.766h.287a.25.25,0,0,0,0-.5h-.287Z" transform="translate(-195.016 -195.242)" fill="#fff"/>
      <path id="Path_24662" data-name="Path 24662" d="M253.507,251.246v1.42a.135.135,0,0,1-.135.132.132.132,0,0,1-.132-.132v-1.007l-.347.479a.126.126,0,0,1-.106.057h0a.141.141,0,0,1-.112-.057l-.338-.479v1.013a.135.135,0,0,1-.267,0v-1.42a.135.135,0,0,1,.132-.132h0a.129.129,0,0,1,.106.054l.479.665.476-.665a.141.141,0,0,1,.109-.054h0a.138.138,0,0,1,.135.126Z" transform="translate(-198.589 -195.256)" fill="#fff"/>
      <path id="Path_24663" data-name="Path 24663" d="M259.16,251.232a.129.129,0,0,1,.132-.132.135.135,0,0,1,.135.132v1.42a.135.135,0,0,1-.135.132.129.129,0,0,1-.132-.132Z" transform="translate(-203.646 -195.242)" fill="#fff"/>
      <path id="Path_24664" data-name="Path 24664" d="M262.366,251.337h-.382v1.285a.129.129,0,0,1-.132.132.132.132,0,0,1-.132-.132v-1.285h-.379a.135.135,0,0,1-.132-.135.129.129,0,0,1,.132-.132h1.024a.129.129,0,0,1,.132.132.135.135,0,0,1-.132.135Z" transform="translate(-205.108 -195.22)" fill="#fff"/>
      <path id="Path_24665" data-name="Path 24665" d="M246.983,92.17v2.183h-.62V92.17a1.408,1.408,0,1,0-2.811,0v2.183h-.62V92.17a2.028,2.028,0,1,1,4.05,0Z" transform="translate(-192.071 -80.375)" fill="#ebebeb"/>
      <path id="Path_24666" data-name="Path 24666" d="M242.94,99.45l.62.026v1.592h-.62Z" transform="translate(-192.078 -87.09)" fill="#c7c7c7"/>
      <path id="Path_24667" data-name="Path 24667" d="M255.52,99.966v1.451h-.62V99.94Z" transform="translate(-200.608 -87.44)" fill="#c7c7c7"/>
      <rect id="Rectangle_38010" data-name="Rectangle 38010" width="5.631" height="4.673" transform="translate(50.073 13.169)" fill="#fea150"/>
      <path id="Path_24668" data-name="Path 24668" d="M248.926,108.014l.235,1.116h-1l.238-1.116a.5.5,0,1,1,.528,0Z" transform="translate(-195.801 -92.539)" fill="#263238"/>
      <path id="Path_24669" data-name="Path 24669" d="M143.62,159.373a.063.063,0,0,1,.063-.063h.519a.525.525,0,0,1,0,1.047h-.453v.72a.065.065,0,0,1-.129,0Zm.574.861a.4.4,0,0,0,.4-.4.4.4,0,0,0-.4-.4h-.453v.795Z" transform="translate(-121.247 -129.78)" fill="#263238"/>
      <path id="Path_24670" data-name="Path 24670" d="M148.92,159.373a.063.063,0,1,1,.126,0v1.721a.063.063,0,1,1-.126,0Z" transform="translate(-125.027 -129.78)" fill="#263238"/>
      <path id="Path_24671" data-name="Path 24671" d="M151.213,161.787a.622.622,0,1,1,1.242-.046h0a.06.06,0,0,1-.063.06h-1.053a.5.5,0,0,0,.5.491.485.485,0,0,0,.416-.232.057.057,0,0,1,.083-.02.066.066,0,0,1,.02.089.611.611,0,0,1-.519.287A.631.631,0,0,1,151.213,161.787Zm.132-.1h.975a.5.5,0,0,0-.485-.419.5.5,0,0,0-.491.419Z" transform="translate(-126.66 -131.061)" fill="#263238"/>
      <path id="Path_24672" data-name="Path 24672" d="M157.751,161.265v1.147a.063.063,0,1,1-.126,0v-.189a.594.594,0,0,1-.482.252.643.643,0,1,1,0-1.285.594.594,0,0,1,.482.252v-.189a.063.063,0,1,1,.126,0Zm-.126.574a.482.482,0,1,0-.482.516.5.5,0,0,0,.482-.511Z" transform="translate(-130.432 -131.121)" fill="#263238"/>
      <path id="Path_24673" data-name="Path 24673" d="M162.422,162.255a.063.063,0,0,1,.089,0,.688.688,0,0,0,.393.149.393.393,0,0,0,.25-.086.2.2,0,0,0,.1-.158.2.2,0,0,0-.092-.158.685.685,0,0,0-.272-.095h0a.717.717,0,0,1-.287-.1.27.27,0,0,1-.141-.232.324.324,0,0,1,.141-.252.556.556,0,0,1,.316-.086.691.691,0,0,1,.382.141.063.063,0,0,1,.017.089.06.06,0,0,1-.086.017.573.573,0,0,0-.313-.129.39.39,0,0,0-.244.075.192.192,0,0,0-.083.146.152.152,0,0,0,.075.129.614.614,0,0,0,.261.089h0a.892.892,0,0,1,.313.106.321.321,0,0,1,.143.261.33.33,0,0,1-.146.261.542.542,0,0,1-.321.1.763.763,0,0,1-.473-.184.06.06,0,0,1-.017-.086Z" transform="translate(-134.648 -131.156)" fill="#263238"/>
      <path id="Path_24674" data-name="Path 24674" d="M166.933,161.787a.622.622,0,1,1,1.242-.046h0a.06.06,0,0,1-.063.06h-1.053a.5.5,0,0,0,.5.491.482.482,0,0,0,.413-.232.057.057,0,0,1,.083-.02.069.069,0,0,1,.023.089.62.62,0,0,1-.519.287.631.631,0,0,1-.625-.628Zm.135-.1h.972a.49.49,0,0,0-.972,0Z" transform="translate(-137.871 -131.061)" fill="#263238"/>
      <path id="Path_24675" data-name="Path 24675" d="M175.243,161.787a.622.622,0,1,1,1.242-.046h0a.06.06,0,0,1-.063.06h-1.053a.5.5,0,0,0,.5.49.485.485,0,0,0,.416-.232.057.057,0,0,1,.083-.02.066.066,0,0,1,.02.089.611.611,0,0,1-.519.287A.631.631,0,0,1,175.243,161.787Zm.132-.1h.975a.5.5,0,0,0-.485-.419A.5.5,0,0,0,175.375,161.687Z" transform="translate(-143.797 -131.062)" fill="#263238"/>
      <path id="Path_24676" data-name="Path 24676" d="M182.126,161.776a.4.4,0,0,0-.4-.4.4.4,0,0,0-.4.4v.708a.052.052,0,0,1,0,.029.054.054,0,0,1-.049.023h0a.066.066,0,0,1-.043-.034h0v-1.179a.063.063,0,0,1,.063-.063.06.06,0,0,1,.06.063v.123a.528.528,0,0,1,.4-.186.522.522,0,0,1,.522.522v.7a.063.063,0,1,1-.126,0Z" transform="translate(-148.076 -131.171)" fill="#263238"/>
      <path id="Path_24677" data-name="Path 24677" d="M186.852,159.979a.069.069,0,0,1-.063.063h-.166v.938a.1.1,0,0,0,.095.092.075.075,0,0,1,.066.066.072.072,0,0,1-.066.063.218.218,0,0,1-.224-.221v-.938h-.161c-.063,0-.063-.032-.063-.063s0-.063.063-.063h.161v-.476a.066.066,0,0,1,.129,0v.476h.166a.069.069,0,0,1,.063.063Z" transform="translate(-151.663 -129.836)" fill="#263238"/>
      <path id="Path_24678" data-name="Path 24678" d="M189.7,161.787a.622.622,0,1,1,1.242-.046h0a.06.06,0,0,1-.063.06h-1.053a.5.5,0,0,0,.5.49.485.485,0,0,0,.416-.232.057.057,0,0,1,.083-.02.066.066,0,0,1,.02.089.611.611,0,0,1-.519.287A.631.631,0,0,1,189.7,161.787Zm.132-.1h.975a.5.5,0,0,0-.485-.419.5.5,0,0,0-.49.419Z" transform="translate(-154.11 -131.062)" fill="#263238"/>
      <path id="Path_24679" data-name="Path 24679" d="M195.4,161.3a.063.063,0,0,1,.066-.063.06.06,0,0,1,.06.063v.287l.017-.032a.625.625,0,0,1,.516-.316.063.063,0,0,1,.063.063.066.066,0,0,1-.063.063.465.465,0,0,0-.373.209,1.147,1.147,0,0,0-.155.287.043.043,0,0,0,0,.023v.574a.06.06,0,0,1-.06.063.063.063,0,0,1-.066-.063Z" transform="translate(-158.174 -131.156)" fill="#263238"/>
      <path id="Path_24680" data-name="Path 24680" d="M202.272,159.979a.069.069,0,0,1-.063.063h-.166v.938a.1.1,0,0,0,.095.092.075.075,0,0,1,.066.066.072.072,0,0,1-.066.063.218.218,0,0,1-.224-.221v-.938h-.161c-.063,0-.063-.032-.063-.063s0-.063.063-.063h.161v-.476a.066.066,0,0,1,.129,0v.476h.166a.069.069,0,0,1,.063.063Z" transform="translate(-162.66 -129.836)" fill="#263238"/>
      <path id="Path_24681" data-name="Path 24681" d="M206.628,160.283a.407.407,0,0,0-.815,0v.723h0a.052.052,0,0,1-.04.032h-.017a.06.06,0,0,1-.049-.02V161a.063.063,0,0,1,0-.023v-1.721a.065.065,0,0,1,.129,0v.677a.534.534,0,0,1,.4-.189.513.513,0,0,1,.539.508v.714a.065.065,0,0,1-.129,0Z" transform="translate(-165.525 -129.695)" fill="#263238"/>
      <path id="Path_24682" data-name="Path 24682" d="M210.909,161.874a.623.623,0,1,1,1.245-.046h0a.06.06,0,0,1-.063.06h-1.056a.508.508,0,0,0,.5.49.482.482,0,0,0,.413-.232.063.063,0,0,1,.086-.02.069.069,0,0,1,.02.089.614.614,0,0,1-.519.287A.631.631,0,0,1,210.909,161.874Zm.135-.1h.972a.5.5,0,0,0-.482-.419.5.5,0,0,0-.49.419Z" transform="translate(-169.235 -131.148)" fill="#263238"/>
      <path id="Path_24683" data-name="Path 24683" d="M220.245,159.217a.932.932,0,1,1-.886.932.906.906,0,0,1,.886-.932Zm0,1.721a.8.8,0,1,0-.757-.8.777.777,0,0,0,.757.812Z" transform="translate(-175.261 -129.713)" fill="#263238"/>
      <path id="Path_24684" data-name="Path 24684" d="M227.054,159.439H226.5a.066.066,0,0,1,0-.129h1.233a.065.065,0,0,1,0,.129h-.554v1.644a.063.063,0,0,1-.126,0Z" transform="translate(-180.317 -129.78)" fill="#263238"/>
      <path id="Path_24685" data-name="Path 24685" d="M232.83,159.373a.063.063,0,0,1,.063-.063h.519a.525.525,0,0,1,0,1.047h-.453v.72a.065.065,0,0,1-.129,0Zm.574.861a.4.4,0,0,0,.4-.4.4.4,0,0,0-.4-.4h-.453v.795Z" transform="translate(-184.868 -129.78)" fill="#263238"/>
      <path id="Path_24686" data-name="Path 24686" d="M240.48,161.869a.648.648,0,0,1,.66-.64.665.665,0,0,1,.41.143.06.06,0,0,1,0,.086.063.063,0,0,1-.086,0,.542.542,0,0,0-.333-.115.519.519,0,1,0,0,1.035.542.542,0,0,0,.333-.112.066.066,0,0,1,.086,0,.063.063,0,0,1-.014.092.666.666,0,0,1-.4.135A.648.648,0,0,1,240.48,161.869Z" transform="translate(-190.324 -131.149)" fill="#263238"/>
      <path id="Path_24687" data-name="Path 24687" d="M246.278,161.228a.643.643,0,1,1-.608.643A.628.628,0,0,1,246.278,161.228Zm0,1.147a.519.519,0,1,0-.482-.516.5.5,0,0,0,.482.528Z" transform="translate(-194.025 -131.147)" fill="#263238"/>
      <path id="Path_24688" data-name="Path 24688" d="M252.356,160.9a.614.614,0,0,1-.493.25.643.643,0,0,1,0-1.285.614.614,0,0,1,.493.252v-.74a.065.065,0,0,1,.129,0v1.721a.065.065,0,0,1-.129,0Zm0-.367v-.043a.493.493,0,1,0-.493.531A.5.5,0,0,0,252.356,160.529Z" transform="translate(-197.983 -129.78)" fill="#263238"/>
      <path id="Path_24689" data-name="Path 24689" d="M257.163,161.787a.622.622,0,1,1,1.242-.046h0a.06.06,0,0,1-.063.06h-1.053a.5.5,0,0,0,.5.491.482.482,0,0,0,.413-.232.06.06,0,0,1,.083-.02.069.069,0,0,1,.023.089.614.614,0,0,1-.519.287A.631.631,0,0,1,257.163,161.787Zm.135-.1h.964a.5.5,0,0,0-.482-.419.5.5,0,0,0-.482.419Z" transform="translate(-202.22 -131.061)" fill="#263238"/>
      <path id="Path_24690" data-name="Path 24690" d="M265.43,162.255a.063.063,0,0,1,.089,0,.68.68,0,0,0,.393.149.393.393,0,0,0,.238-.086.2.2,0,0,0,.1-.158.2.2,0,0,0-.092-.158.685.685,0,0,0-.287-.095h0a.717.717,0,0,1-.287-.1.27.27,0,0,1-.141-.232.324.324,0,0,1,.141-.252.554.554,0,0,1,.313-.086.694.694,0,0,1,.384.141.066.066,0,0,1,.017.089.06.06,0,0,1-.086.017.574.574,0,0,0-.316-.129.4.4,0,0,0-.244.075.2.2,0,0,0-.08.146.155.155,0,0,0,.072.129.642.642,0,0,0,.264.089h0a.916.916,0,0,1,.313.106.321.321,0,0,1,.143.261.33.33,0,0,1-.146.261.542.542,0,0,1-.321.1.763.763,0,0,1-.473-.184.057.057,0,0,1,.009-.086Z" transform="translate(-208.1 -131.156)" fill="#263238"/>
      <path id="Path_24691" data-name="Path 24691" d="M269.993,161.787a.622.622,0,1,1,1.242-.046h0a.06.06,0,0,1-.063.06h-1.053a.5.5,0,0,0,.5.491.485.485,0,0,0,.416-.232.057.057,0,0,1,.083-.02.066.066,0,0,1,.02.089.611.611,0,0,1-.519.287A.631.631,0,0,1,269.993,161.787Zm.132-.1h.972a.49.49,0,0,0-.482-.419.5.5,0,0,0-.5.419Z" transform="translate(-211.37 -131.061)" fill="#263238"/>
      <path id="Path_24692" data-name="Path 24692" d="M276.767,161.743a.4.4,0,0,0-.4-.4.4.4,0,0,0-.4.4v.708a.087.087,0,0,1,0,.029.055.055,0,0,1-.049.023h-.034a.066.066,0,0,1-.043-.034h0V161.29a.063.063,0,1,1,.123,0v.123a.522.522,0,0,1,.921.336v.7a.063.063,0,1,1-.126,0Z" transform="translate(-215.545 -131.138)" fill="#263238"/>
      <path id="Path_24693" data-name="Path 24693" d="M281.552,159.952a.069.069,0,0,1-.063.063h-.166v.938a.1.1,0,0,0,.095.092.075.075,0,0,1,.066.066.072.072,0,0,1-.066.063.215.215,0,0,1-.224-.221v-.938h-.161c-.063,0-.063-.032-.063-.063s0-.063.063-.063h.161v-.476a.069.069,0,0,1,.063-.063.072.072,0,0,1,.066.063v.476h.166a.069.069,0,0,1,.063.063Z" transform="translate(-219.2 -129.809)" fill="#263238"/>
      <path id="Path_24694" data-name="Path 24694" d="M287.982,159.952a.069.069,0,0,1-.063.063h-.166v.938a.1.1,0,0,0,.095.092.075.075,0,0,1,.066.066.072.072,0,0,1-.066.063.218.218,0,0,1-.227-.221v-.938h-.158c-.063,0-.063-.032-.063-.063s0-.063.063-.063h.158v-.476a.069.069,0,0,1,.063-.063.072.072,0,0,1,.069.063v.476h.166A.069.069,0,0,1,287.982,159.952Z" transform="translate(-223.786 -129.809)" fill="#263238"/>
      <path id="Path_24695" data-name="Path 24695" d="M291.778,161.228a.643.643,0,1,1-.608.643A.628.628,0,0,1,291.778,161.228Zm0,1.147a.519.519,0,1,0-.481-.518A.519.519,0,0,0,291.778,162.375Z" transform="translate(-226.474 -131.147)" fill="#263238"/>
      <path id="Path_24696" data-name="Path 24696" d="M299.46,161.29a.06.06,0,0,1,.06-.06.063.063,0,0,1,.066.06v.7a.393.393,0,0,0,.393.4.4.4,0,0,0,.4-.4v-.7a.049.049,0,0,1,0-.032h0s0-.014.023-.017h.029l.032.014a.052.052,0,0,1,.014.02.055.055,0,0,1,0,.026v1.124a.605.605,0,0,1-.611.6.625.625,0,0,1-.264-.06.063.063,0,0,1,.014-.083.066.066,0,0,1,.08-.032.476.476,0,0,0,.209.049.482.482,0,0,0,.485-.476v-.086a.522.522,0,0,1-.918-.338Z" transform="translate(-232.386 -131.149)" fill="#263238"/>
      <path id="Path_24697" data-name="Path 24697" d="M305.338,161.228a.643.643,0,1,1-.608.643A.628.628,0,0,1,305.338,161.228Zm0,1.147a.519.519,0,1,0-.482-.516.5.5,0,0,0,.482.528Z" transform="translate(-236.144 -131.147)" fill="#263238"/>
      <path id="Path_24698" data-name="Path 24698" d="M310.406,161.283a.063.063,0,0,1,.126,0v.7a.4.4,0,1,0,.792,0v-.7a.066.066,0,0,1,.063-.063.063.063,0,0,1,.066.063v.7a.525.525,0,1,1-1.047,0Z" transform="translate(-240.192 -131.142)" fill="#263238"/>
      <path id="Path_24699" data-name="Path 24699" d="M316.11,161.3a.063.063,0,0,1,.066-.063.06.06,0,0,1,.06.063v.287a.086.086,0,0,1,.017-.032.62.62,0,0,1,.513-.316.063.063,0,0,1,0,.126.468.468,0,0,0-.373.209,1.238,1.238,0,0,0-.155.287.078.078,0,0,0,0,.023v.574a.06.06,0,0,1-.06.063.063.063,0,0,1-.066-.063Z" transform="translate(-244.26 -131.156)" fill="#263238"/>
      <path id="Path_24700" data-name="Path 24700" d="M323.767,161.743a.4.4,0,0,0-.4-.4.4.4,0,0,0-.4.4v.708a.087.087,0,0,1,0,.029.055.055,0,0,1-.049.023h-.034a.066.066,0,0,1-.043-.034h0V161.29a.063.063,0,1,1,.123,0v.123a.522.522,0,0,1,.921.336v.7a.063.063,0,1,1-.126,0Z" transform="translate(-249.064 -131.138)" fill="#263238"/>
      <path id="Path_24701" data-name="Path 24701" d="M328.366,161.283a.063.063,0,0,1,.126,0v.7a.4.4,0,0,0,.792,0v-.7a.066.066,0,0,1,.063-.063.063.063,0,0,1,.066.063v.7a.525.525,0,1,1-1.047,0Z" transform="translate(-253 -131.142)" fill="#263238"/>
      <path id="Path_24702" data-name="Path 24702" d="M335.987,161.84a.4.4,0,0,0-.4-.4.4.4,0,0,0-.4.4v.72a.092.092,0,0,1-.032.034H335.1v-.714a.4.4,0,1,0-.792,0v.7a.06.06,0,0,1-.029.052h-.043a.066.066,0,0,1-.052-.046V161.41a.062.062,0,0,1,.123,0v.123a.516.516,0,0,1,.4-.184.525.525,0,0,1,.459.272.533.533,0,0,1,.462-.272.522.522,0,0,1,.519.522v.7a.06.06,0,0,1-.12,0Z" transform="translate(-257.147 -131.235)" fill="#263238"/>
      <path id="Path_24703" data-name="Path 24703" d="M342.76,160.56v-1.147a.065.065,0,0,1,.129,0v.74a.611.611,0,0,1,.493-.252.643.643,0,1,1,0,1.285.608.608,0,0,1-.493-.25v.186a.065.065,0,0,1-.129,0Zm.129-.026a.508.508,0,1,0,0-.02Z" transform="translate(-263.266 -129.809)" fill="#263238"/>
      <path id="Path_24704" data-name="Path 24704" d="M348.469,161.874a.623.623,0,1,1,1.245-.046h0a.063.063,0,0,1-.063.06H348.6a.5.5,0,0,0,.5.49.482.482,0,0,0,.413-.232.06.06,0,0,1,.083-.02.066.066,0,0,1,.023.089.614.614,0,0,1-.519.287A.631.631,0,0,1,348.469,161.874Zm.135-.1h.972a.5.5,0,0,0-.482-.419A.5.5,0,0,0,348.6,161.774Z" transform="translate(-267.337 -131.148)" fill="#263238"/>
      <path id="Path_24705" data-name="Path 24705" d="M354.17,161.3a.063.063,0,1,1,.126,0v.287a.086.086,0,0,1,.017-.032.62.62,0,0,1,.513-.316.063.063,0,1,1,0,.126.468.468,0,0,0-.373.209,1.236,1.236,0,0,0-.155.287.083.083,0,0,0,0,.023v.574a.063.063,0,1,1-.126,0Z" transform="translate(-271.404 -131.157)" fill="#263238"/>
      <path id="Path_24706" data-name="Path 24706" d="M201.871,132.9l-.037-.026h0a.127.127,0,0,1-.026-.032h0a.121.121,0,0,0-.026-.04l-1.239-2.957a.287.287,0,0,1,.511-.215l.987,2.346.99-2.346a.28.28,0,0,1,.516.215l-1.259,2.929a.2.2,0,0,1-.023.04h0a.186.186,0,0,0-.026.032h0a.233.233,0,0,1-.029.026h0a.246.246,0,0,1-.04.026h0a.121.121,0,0,0-.043,0h0a.166.166,0,0,1-.052,0,.143.143,0,0,1-.049,0h0a.1.1,0,0,0-.04,0h0l-.043-.032Z" transform="translate(-161.841 -108.493)" fill="#263238"/>
      <path id="Path_24707" data-name="Path 24707" d="M212.35,134.055a1.253,1.253,0,0,1,1.236-1.265,1.21,1.21,0,0,1,1.219,1.176V134a.111.111,0,0,1,0,.043.241.241,0,0,1-.261.2h-1.612a.686.686,0,0,0,.178.327.786.786,0,0,0,.488.227.84.84,0,0,0,.525-.126.287.287,0,0,1,.382-.014.229.229,0,0,1,0,.327,1.276,1.276,0,0,1-.906.336A1.259,1.259,0,0,1,212.35,134.055Zm.551-.247h1.434a.826.826,0,0,0-.749-.536A.714.714,0,0,0,212.9,133.808Z" transform="translate(-170.262 -110.867)" fill="#263238"/>
      <path id="Path_24708" data-name="Path 24708" d="M224.889,133.038a.27.27,0,0,1-.27.267.488.488,0,0,0-.3.1.757.757,0,0,0-.232.244,1.557,1.557,0,0,0-.207.425v.961a.278.278,0,0,1-.556,0v-2.008a.267.267,0,0,1,.27-.264.287.287,0,0,1,.287.264v.034a.7.7,0,0,1,.106-.1,1.1,1.1,0,0,1,.637-.2.264.264,0,0,1,.27.278Z" transform="translate(-178.086 -110.846)" fill="#263238"/>
      <path id="Path_24709" data-name="Path 24709" d="M231.609,129.606a.28.28,0,1,1-.559,0V129.5a.287.287,0,0,1,.287-.287.27.27,0,0,1,.272.287Zm0,.915v1.973a.28.28,0,1,1-.559,0v-1.973a.287.287,0,0,1,.287-.287.27.27,0,0,1,.273.287Z" transform="translate(-183.599 -108.314)" fill="#263238"/>
      <path id="Path_24710" data-name="Path 24710" d="M236.575,130.049v.072h.152a.287.287,0,0,1,0,.574h-.152v1.787a.287.287,0,0,1-.556,0v-1.8h-.132a.287.287,0,1,1,0-.574H236v-.072a1.033,1.033,0,0,1,.1-.5.6.6,0,0,1,.364-.316,1.068,1.068,0,0,1,.3-.04.287.287,0,1,1,0,.574.324.324,0,0,0-.132.017.046.046,0,0,0-.032.014A.853.853,0,0,0,236.575,130.049Z" transform="translate(-186.844 -108.292)" fill="#263238"/>
      <path id="Path_24711" data-name="Path 24711" d="M242.988,129.606a.28.28,0,1,1-.559,0V129.5a.287.287,0,0,1,.287-.287.27.27,0,0,1,.272.287Zm0,.915v1.973a.27.27,0,0,1-.273.287.287.287,0,0,1-.287-.287v-1.973a.27.27,0,0,1,.287-.287.267.267,0,0,1,.273.287Z" transform="translate(-191.713 -108.314)" fill="#263238"/>
      <path id="Path_24712" data-name="Path 24712" d="M246.8,134.061a1.291,1.291,0,0,1,1.288-1.271,1.328,1.328,0,0,1,.8.287.268.268,0,1,1-.324.427.792.792,0,0,0-.479-.163.729.729,0,1,0,0,1.454.8.8,0,0,0,.479-.163.27.27,0,1,1,.324.43,1.377,1.377,0,0,1-.8.27,1.285,1.285,0,0,1-1.288-1.271Z" transform="translate(-194.831 -110.867)" fill="#263238"/>
      <path id="Path_24713" data-name="Path 24713" d="M259.009,134.061v.992a.27.27,0,0,1-.267.27.287.287,0,0,1-.264-.218,1.147,1.147,0,0,1-.674.218,1.182,1.182,0,0,1-.861-.37,1.3,1.3,0,0,1-.344-.892,1.268,1.268,0,0,1,.344-.889,1.147,1.147,0,0,1,1.535-.158.267.267,0,0,1,.531.063Zm-.536,0a.743.743,0,0,0-.2-.522.628.628,0,0,0-.47-.207.619.619,0,0,0-.47.207.751.751,0,0,0-.192.522.763.763,0,0,0,.192.522.643.643,0,0,0,.47.2.651.651,0,0,0,.47-.2.754.754,0,0,0,.189-.522Z" transform="translate(-201.82 -110.867)" fill="#263238"/>
      <path id="Path_24714" data-name="Path 24714" d="M269.075,130.551a.287.287,0,0,1-.287.287h-.118v1.414a.287.287,0,1,1,0,.574.574.574,0,0,1-.574-.574v-1.414h-.146a.287.287,0,0,1,0-.556h.146v-.734a.287.287,0,1,1,.574,0v.734h.126A.287.287,0,0,1,269.075,130.551Z" transform="translate(-209.76 -108.35)" fill="#263238"/>
      <path id="Path_24715" data-name="Path 24715" d="M276.028,129.606a.28.28,0,1,1-.559,0V129.5a.287.287,0,0,1,.287-.287.27.27,0,0,1,.272.287Zm0,.915v1.973a.27.27,0,0,1-.272.287.287.287,0,0,1-.287-.287v-1.973a.27.27,0,0,1,.287-.287.267.267,0,0,1,.273.287Z" transform="translate(-215.276 -108.314)" fill="#263238"/>
      <path id="Path_24716" data-name="Path 24716" d="M280.407,134.953a1.277,1.277,0,0,1-.347-.892,1.32,1.32,0,0,1,.347-.886,1.185,1.185,0,0,1,.861-.384,1.122,1.122,0,0,1,.846.384,1.271,1.271,0,0,1,.353.886,1.23,1.23,0,0,1-.353.892,1.122,1.122,0,0,1-.846.384A1.185,1.185,0,0,1,280.407,134.953Zm.2-.892a.809.809,0,0,0,.184.536.677.677,0,0,0,.485.189.654.654,0,0,0,.465-.189.763.763,0,0,0,.2-.536.746.746,0,0,0-.2-.525.709.709,0,0,0-.465-.192.729.729,0,0,0-.485.192.789.789,0,0,0-.178.525Z" transform="translate(-218.551 -110.867)" fill="#263238"/>
      <path id="Path_24717" data-name="Path 24717" d="M293.64,133.8v1.21a.267.267,0,0,1-.264.27.287.287,0,0,1-.267-.27V133.8a.519.519,0,0,0-.528-.511.5.5,0,0,0-.5.511v1.21a.1.1,0,0,1,0,.052.287.287,0,0,1-.267.218.27.27,0,0,1-.27-.27V133a.27.27,0,0,1,.516-.112,1,1,0,0,1,.536-.158A1.061,1.061,0,0,1,293.64,133.8Z" transform="translate(-226.738 -110.824)" fill="#263238"/>
    </g>
    <g id="freepik--Shield--inject-36" transform="translate(155.065 40.918)">
      <path id="Path_24718" data-name="Path 24718" d="M415.088,56.354s-1.885,15.09-4.982,18.484c-3.729,4.073-6.417,3.476-7.917,5.579-1.5-2.105-4.2-1.506-7.922-5.582-3.1-3.393-4.977-18.484-4.977-18.484a56.752,56.752,0,0,0,12.908-8.4h0A55.858,55.858,0,0,0,415.088,56.354Z" transform="translate(-385.47 -47.95)" fill="#fea150"/>
      <path id="Path_24719" data-name="Path 24719" d="M402.189,47.964V80.417c-1.5-2.105-4.2-1.506-7.922-5.582-3.1-3.393-4.977-18.484-4.977-18.484a56.752,56.752,0,0,0,12.908-8.4Z" transform="translate(-385.47 -47.95)" opacity="0.1"/>
      <path id="Path_24720" data-name="Path 24720" d="M396.26,63.839s1.589,12.747,4.205,15.615c3.155,3.442,5.427,2.94,6.695,4.713,1.268-1.773,3.548-1.268,6.692-4.713,2.616-2.868,4.205-15.615,4.205-15.615a48.137,48.137,0,0,1-10.9-7.1A47.816,47.816,0,0,1,396.26,63.839Z" transform="translate(-390.441 -54.219)" fill="#fea150"/>
      <path id="Path_24721" data-name="Path 24721" d="M445.147,63.853s-1.592,12.744-4.208,15.615c-3.141,3.442-5.421,2.94-6.689,4.71V56.76A47.954,47.954,0,0,0,445.147,63.853Z" transform="translate(-417.534 -54.233)" fill="#fff" opacity="0.2"/>
      <circle id="Ellipse_1949" data-name="Ellipse 1949" cx="5.054" cy="5.054" r="5.054" transform="translate(11.662 11.181)" fill="#455a64"/>
      <path id="Path_24722" data-name="Path 24722" d="M426.652,101.188,424.4,98.847l.835-.8,1.242,1.291,2.673-4.1.972.634Z" transform="translate(-410.51 -81.668)" fill="#fff"/>
      <path id="Path_24723" data-name="Path 24723" d="M467.89,151.213l-.714.135-.161.752-.161-.752-.714-.135.711-.172.163-.711.163.711Z" transform="translate(-440.277 -120.964)" fill="#fea150"/>
      <path id="Path_24724" data-name="Path 24724" d="M394.08,131.236l-.714.132-.161.754-.161-.754-.714-.132.711-.175.163-.711.163.711Z" transform="translate(-387.638 -106.715)" fill="#fea150"/>
      <path id="Path_24725" data-name="Path 24725" d="M405.45,62l-.714.132-.161.752-.158-.752-.717-.135.714-.172.161-.711.163.711Z" transform="translate(-395.747 -57.335)" fill="#fea150"/>
      <path id="Path_24726" data-name="Path 24726" d="M465.348,140.366l-.4.075-.089.422-.089-.422-.4-.075.4-.1.092-.4.089.4Z" transform="translate(-439.015 -113.504)" fill="#fea150"/>
      <path id="Path_24727" data-name="Path 24727" d="M474.978,111.143l-.4.075-.089.422-.089-.422-.4-.075.4-.1.092-.4.092.4Z" transform="translate(-445.883 -92.665)" fill="#fea150"/>
      <path id="Path_24728" data-name="Path 24728" d="M463.158,59.876l-.4.075-.089.419-.092-.419-.4-.075.4-.1.092-.4.089.4Z" transform="translate(-437.453 -56.101)" fill="#fea150"/>
      <path id="Path_24729" data-name="Path 24729" d="M427.588,166.226l-.4.075-.092.419-.089-.419-.4-.075.4-.1.089-.4.092.4Z" transform="translate(-412.086 -131.946)" fill="#fea150"/>
      <path id="Path_24730" data-name="Path 24730" d="M388.258,135.626l-.4.075-.092.422-.089-.422-.4-.075.4-.1.089-.4.092.4Z" transform="translate(-384.037 -110.124)" fill="#fea150"/>
      <path id="Path_24731" data-name="Path 24731" d="M390.428,94.926l-.4.075-.089.422L389.849,95l-.4-.075.4-.1.092-.4.092.4Z" transform="translate(-385.585 -81.098)" fill="#fea150"/>
      <path id="Path_24732" data-name="Path 24732" d="M451.033,148.19a.118.118,0,1,0,.1.116A.118.118,0,0,0,451.033,148.19Z" transform="translate(-429.433 -119.438)" fill="#fea150"/>
      <path id="Path_24733" data-name="Path 24733" d="M386.833,75a.118.118,0,1,0,.1.116.118.118,0,0,0-.1-.116Z" transform="translate(-383.647 -67.241)" fill="#fea150"/>
      <path id="Path_24734" data-name="Path 24734" d="M463.643,150.46a.118.118,0,1,0,.1.116A.118.118,0,0,0,463.643,150.46Z" transform="translate(-438.426 -121.056)" fill="#fea150"/>
      <path id="Path_24735" data-name="Path 24735" d="M422.715,87.41a.115.115,0,1,0,.115.115A.115.115,0,0,0,422.715,87.41Z" transform="translate(-409.226 -76.091)" fill="#fea150"/>
      <path id="Path_24736" data-name="Path 24736" d="M385.373,103.67a.118.118,0,1,0,.1.116A.118.118,0,0,0,385.373,103.67Z" transform="translate(-382.606 -87.688)" fill="#fea150"/>
      <path id="Path_24737" data-name="Path 24737" d="M376.041,99.27a.083.083,0,1,0,.068.082A.083.083,0,0,0,376.041,99.27Z" transform="translate(-375.974 -84.55)" fill="#fea150"/>
      <path id="Path_24738" data-name="Path 24738" d="M453.071,55.84a.083.083,0,1,0,.068.082A.083.083,0,0,0,453.071,55.84Z" transform="translate(-430.909 -53.577)" fill="#fea150"/>
      <path id="Path_24739" data-name="Path 24739" d="M413.211,153.61a.083.083,0,1,0,.068.082.083.083,0,0,0-.068-.082Z" transform="translate(-402.482 -123.303)" fill="#fea150"/>
      <path id="Path_24740" data-name="Path 24740" d="M403.957,148.36a.224.224,0,1,0,.2.222A.224.224,0,0,0,403.957,148.36Z" transform="translate(-395.789 -119.559)" fill="#fea150"/>
    </g>
    <g id="freepik--speech-bubble--inject-36" transform="translate(91.418 89.032)">
      <path id="Path_24741" data-name="Path 24741" d="M212.21,216.01v4.825h1.271v2.2l2.2-2.2h14.936V216.01Z" transform="translate(-212.15 -215.918)" fill="#fff"/>
      <path id="Path_24742" data-name="Path 24742" d="M212.06,215.779c0,1.626.057,3.236.06,4.825l-.06-.06h1.334v2.263l-.12-.052,2.191-2.2.023-.023h.034l7.458-.017h7.458l-.1.1V215.79l.092.089-9.179-.032Zm0,0,9.179-.057,9.228-.032h.089v.089l.014,4.825v.1h-7.561l-7.458-.017.055-.023-2.206,2.194-.118.118v-2.366l.063.063H212v-.06C212,218.98,212.049,217.371,212.06,215.779Z" transform="translate(-212 -215.69)" fill="#263238"/>
      <path id="Path_24743" data-name="Path 24743" d="M220.438,220.489v.648h-.184v-.648a.419.419,0,1,0-.835,0v.648h-.184v-.648a.6.6,0,1,1,1.2,0Z" transform="translate(-217.16 -218.653)" fill="#263238"/>
      <path id="Path_24744" data-name="Path 24744" d="M219.25,222.68l.181.009v.47h-.181Z" transform="translate(-217.17 -220.675)" fill="#263238"/>
      <path id="Path_24745" data-name="Path 24745" d="M222.974,222.829v.43h-.184v-.439Z" transform="translate(-219.695 -220.775)" fill="#263238"/>
      <rect id="Rectangle_38011" data-name="Rectangle 38011" width="1.667" height="1.385" transform="translate(1.844 2.246)" fill="#263238"/>
      <path id="Path_24746" data-name="Path 24746" d="M230.938,222.43a2.355,2.355,0,0,1-.436.594,2.321,2.321,0,0,1-.6.43,2.3,2.3,0,0,1,.445-.594A2.226,2.226,0,0,1,230.938,222.43Z" transform="translate(-224.766 -220.497)" fill="#263238"/>
      <path id="Path_24747" data-name="Path 24747" d="M229.9,222.43a2.24,2.24,0,0,1,.6.45,2.355,2.355,0,0,1,.442.594,2.257,2.257,0,0,1-.594-.442A2.3,2.3,0,0,1,229.9,222.43Z" transform="translate(-224.766 -220.497)" fill="#263238"/>
      <path id="Path_24748" data-name="Path 24748" d="M230.623,223.965a2.308,2.308,0,0,1-.731.109,2.231,2.231,0,0,1-.731-.109,2.225,2.225,0,0,1,.731-.106A2.3,2.3,0,0,1,230.623,223.965Z" transform="translate(-224.238 -221.515)" fill="#263238"/>
      <path id="Path_24749" data-name="Path 24749" d="M231.445,221.68a2.51,2.51,0,0,1,0,1.463,2.225,2.225,0,0,1-.106-.731A2.294,2.294,0,0,1,231.445,221.68Z" transform="translate(-225.791 -219.962)" fill="#263238"/>
      <path id="Path_24750" data-name="Path 24750" d="M239.745,222.43a2.226,2.226,0,0,1-.442.594,2.3,2.3,0,0,1-.594.442,2.355,2.355,0,0,1,.442-.594A2.225,2.225,0,0,1,239.745,222.43Z" transform="translate(-231.049 -220.497)" fill="#263238"/>
      <path id="Path_24751" data-name="Path 24751" d="M238.71,222.43a2.547,2.547,0,0,1,1.035,1.035,2.547,2.547,0,0,1-1.035-1.035Z" transform="translate(-231.049 -220.497)" fill="#263238"/>
      <path id="Path_24752" data-name="Path 24752" d="M239.433,223.965a2.309,2.309,0,0,1-.731.109,2.232,2.232,0,0,1-.731-.109,2.225,2.225,0,0,1,.731-.106A2.3,2.3,0,0,1,239.433,223.965Z" transform="translate(-230.521 -221.515)" fill="#263238"/>
      <path id="Path_24753" data-name="Path 24753" d="M240.248,221.68a2.294,2.294,0,0,1,.106.731,2.226,2.226,0,0,1-.106.731,2.231,2.231,0,0,1-.109-.731,2.309,2.309,0,0,1,.109-.731Z" transform="translate(-232.067 -219.962)" fill="#263238"/>
      <path id="Path_24754" data-name="Path 24754" d="M248.555,222.43a2.225,2.225,0,0,1-.442.594,2.355,2.355,0,0,1-.594.442,2.3,2.3,0,0,1,.442-.594,2.226,2.226,0,0,1,.594-.442Z" transform="translate(-237.332 -220.497)" fill="#263238"/>
      <path id="Path_24755" data-name="Path 24755" d="M247.52,222.43a2.547,2.547,0,0,1,1.035,1.035A2.547,2.547,0,0,1,247.52,222.43Z" transform="translate(-237.332 -220.497)" fill="#263238"/>
      <path id="Path_24756" data-name="Path 24756" d="M248.236,223.965a2.309,2.309,0,0,1-.731.109,2.257,2.257,0,0,1-.734-.109,2.254,2.254,0,0,1,.734-.106A2.294,2.294,0,0,1,248.236,223.965Z" transform="translate(-236.797 -221.515)" fill="#263238"/>
      <path id="Path_24757" data-name="Path 24757" d="M249.059,221.68a2.582,2.582,0,0,1,0,1.463A2.51,2.51,0,0,1,249.059,221.68Z" transform="translate(-238.352 -219.962)" fill="#263238"/>
      <path id="Path_24758" data-name="Path 24758" d="M257.365,222.43a2.294,2.294,0,0,1-.442.594,2.354,2.354,0,0,1-.594.442,2.294,2.294,0,0,1,.442-.594A2.226,2.226,0,0,1,257.365,222.43Z" transform="translate(-243.615 -220.497)" fill="#263238"/>
      <path id="Path_24759" data-name="Path 24759" d="M256.33,222.43a2.547,2.547,0,0,1,1.035,1.035,2.355,2.355,0,0,1-.594-.442A2.294,2.294,0,0,1,256.33,222.43Z" transform="translate(-243.615 -220.497)" fill="#263238"/>
      <path id="Path_24760" data-name="Path 24760" d="M257.046,223.965a2.309,2.309,0,0,1-.731.109,2.248,2.248,0,0,1-.734-.109,2.243,2.243,0,0,1,.734-.106A2.3,2.3,0,0,1,257.046,223.965Z" transform="translate(-243.08 -221.515)" fill="#263238"/>
      <path id="Path_24761" data-name="Path 24761" d="M257.869,221.68a2.582,2.582,0,0,1,0,1.463A2.51,2.51,0,0,1,257.869,221.68Z" transform="translate(-244.635 -219.962)" fill="#263238"/>
      <path id="Path_24762" data-name="Path 24762" d="M266.175,222.43a2.3,2.3,0,0,1-.442.594,2.355,2.355,0,0,1-.594.442,2.3,2.3,0,0,1,.442-.594A2.225,2.225,0,0,1,266.175,222.43Z" transform="translate(-249.898 -220.497)" fill="#263238"/>
      <path id="Path_24763" data-name="Path 24763" d="M265.14,222.43a2.225,2.225,0,0,1,.594.442,2.294,2.294,0,0,1,.442.594,2.354,2.354,0,0,1-.594-.442,2.3,2.3,0,0,1-.442-.594Z" transform="translate(-249.898 -220.497)" fill="#263238"/>
      <path id="Path_24764" data-name="Path 24764" d="M265.856,223.965a2.313,2.313,0,0,1-.734.109,2.232,2.232,0,0,1-.731-.109,2.225,2.225,0,0,1,.731-.106A2.311,2.311,0,0,1,265.856,223.965Z" transform="translate(-249.363 -221.515)" fill="#263238"/>
      <path id="Path_24765" data-name="Path 24765" d="M266.677,221.68a2.509,2.509,0,0,1,0,1.463A2.582,2.582,0,0,1,266.677,221.68Z" transform="translate(-250.918 -219.962)" fill="#263238"/>
    </g>
    <g id="freepik--Character--inject-36" transform="translate(43.669 90.156)">
      <path id="Path_24766" data-name="Path 24766" d="M100.725,419.16,84.16,432.515H85.1l19.129-13.355Z" transform="translate(-73.08 -361.921)" fill="#c7c7c7"/>
      <path id="Path_24767" data-name="Path 24767" d="M126.983,419.16,118.8,432.515h.932l10.034-13.355Z" transform="translate(-97.784 -361.921)" fill="#c7c7c7"/>
      <path id="Path_24768" data-name="Path 24768" d="M154.409,419.16l8.183,13.355h-.932L151.63,419.16Z" transform="translate(-121.197 -361.921)" fill="#c7c7c7"/>
      <path id="Path_24769" data-name="Path 24769" d="M157.609,419.16l16.562,13.355h-.932L154.11,419.16Z" transform="translate(-122.965 -361.921)" fill="#c7c7c7"/>
      <path id="Path_24770" data-name="Path 24770" d="M107.816,310.3v-3.907l-22.743-.932L73.058,273.38H45.53L55.271,310.3l23.268,6.534H80Z" transform="translate(-45.53 -257.956)" fill="#455a64"/>
      <path id="Path_24771" data-name="Path 24771" d="M45.53,273.38h3.149l10.148,33.652,20.586,5.831,28.4-6.474V310.3L80,316.83h-1.46L55.271,310.3Z" transform="translate(-45.53 -257.956)" opacity="0.1"/>
      <path id="Path_24772" data-name="Path 24772" d="M178.241,413.009c-.694-.267-16.307-13.057-16.593-13.92-.112-.327,1.618-2.711,3.792-5.53.468-.608.958-1.233,1.457-1.867,3.236-4.113,6.766-8.4,6.766-8.4l10.47,8.522-7.056,8.166-1.549,1.793s3.789,7.572,4,8.553S178.935,413.273,178.241,413.009Z" transform="translate(-128.337 -336.34)" fill="#ad6359"/>
      <path id="Path_24773" data-name="Path 24773" d="M178.241,433.9c-.694-.267-16.307-13.057-16.593-13.92-.135-.4,2.45-3.835,5.249-7.4l10.18,8.292-1.549,1.793s3.789,7.572,4,8.553S178.935,434.162,178.241,433.9Z" transform="translate(-128.337 -357.229)" fill="#ebebeb"/>
      <path id="Path_24774" data-name="Path 24774" d="M178.241,438.54c-.694-.267-16.307-13.057-16.593-13.92-.112-.327,1.618-2.711,3.792-5.53l10.088,8.218s3.789,7.572,4,8.553S178.935,438.8,178.241,438.54Z" transform="translate(-128.337 -361.871)" fill="#fea150"/>
      <path id="Path_24775" data-name="Path 24775" d="M181.133,452.084c-2.582-2.209-13.117-10.874-15.822-12.862-.02-.017-.032,0,0,.014,2.478,2.246,13.091,10.817,15.785,12.89C181.153,452.17,181.185,452.13,181.133,452.084Z" transform="translate(-130.94 -376.224)" fill="#263238"/>
      <path id="Path_24776" data-name="Path 24776" d="M212.629,471.088a2.716,2.716,0,0,0-2.088-.643,2.628,2.628,0,0,0-1.721.918c0,.014.017.04.032.026a3.135,3.135,0,0,1,3.76-.267.02.02,0,1,0,.017-.034Z" transform="translate(-161.983 -398.483)" fill="#263238"/>
      <path id="Path_24777" data-name="Path 24777" d="M203.058,448.41a4.707,4.707,0,0,0-3.907-1.176c-.052.014-.032.086,0,.1a18.519,18.519,0,0,1,3.806,1.222.088.088,0,1,0,.1-.143Z" transform="translate(-155.065 -381.881)" fill="#263238"/>
      <path id="Path_24778" data-name="Path 24778" d="M204.976,451.863a4.755,4.755,0,0,0-3.907-1.176c-.052,0-.034.086,0,.1a18.575,18.575,0,0,1,3.806,1.222.088.088,0,0,0,.1-.143Z" transform="translate(-156.432 -384.344)" fill="#263238"/>
      <path id="Path_24779" data-name="Path 24779" d="M206.9,455.23a4.707,4.707,0,0,0-3.907-1.176c-.052,0-.034.086,0,.1a18.578,18.578,0,0,1,3.806,1.222.088.088,0,0,0,.1-.143Z" transform="translate(-157.801 -386.744)" fill="#263238"/>
      <path id="Path_24780" data-name="Path 24780" d="M208.816,458.64a4.753,4.753,0,0,0-3.907-1.173c-.052,0-.034.086,0,.095a18.758,18.758,0,0,1,3.806,1.225.089.089,0,0,0,.1-.146Z" transform="translate(-159.17 -389.179)" fill="#263238"/>
      <path id="Path_24781" data-name="Path 24781" d="M170.011,431.8a1.182,1.182,0,0,0-1.492,1.833A1.182,1.182,0,0,0,170.011,431.8Z" transform="translate(-132.935 -370.74)" fill="#fff"/>
      <path id="Path_24782" data-name="Path 24782" d="M212.188,442.81c-.169-.875-1.19-.992-1.89-.8a7.087,7.087,0,0,0-3.155,1.9.031.031,0,0,0,0,.054.166.166,0,0,0,.118.241,11.823,11.823,0,0,0,3.568.075C211.526,444.133,212.349,443.648,212.188,442.81Zm-3.109,1.173c-.574-.034-1.147-.095-1.721-.106a21.392,21.392,0,0,1,1.862-1.07,7.811,7.811,0,0,1,.964-.393c.511-.158,2.255-.192,1.434,1.033-.468.688-1.853.585-2.538.548Z" transform="translate(-160.773 -378.16)" fill="#263238"/>
      <path id="Path_24783" data-name="Path 24783" d="M195.569,437.19a12.353,12.353,0,0,0,2.96,2.008.166.166,0,0,0,.235-.126.034.034,0,0,0,.037-.043,7.085,7.085,0,0,0-1.477-3.365c-.465-.574-1.365-1.05-2.008-.433S195.113,436.679,195.569,437.19Zm-.146-1.116c.029-1.48,1.434-.447,1.761-.023a8,8,0,0,1,.574.878c.356.625.614,1.288.906,1.945-.479-.324-.981-.6-1.471-.906-.582-.364-1.773-1.078-1.758-1.893Z" transform="translate(-152.122 -373.176)" fill="#263238"/>
      <path id="Path_24784" data-name="Path 24784" d="M161.6,332.979c-.792,5.484-14.517,21.174-16.1,22.973-.235.264-.361.41-.361.41l-11.092-8.74.132-.166L144.2,334.668l-29.406-.531,11.273-8.548a4.625,4.625,0,0,0,2.785.287c6.5-.86,21.157-2.8,24.608-2.616C157.89,323.5,162.316,327.948,161.6,332.979Z" transform="translate(-94.924 -293.521)" fill="#263238"/>
      <path id="Path_24785" data-name="Path 24785" d="M219.641,346.454a13.213,13.213,0,0,0-1.033,1.291c-.353.453-.714.9-1.067,1.354v.014c.063-.135.123-.267.189-.4.227-.453.407-.921.671-1.354a.024.024,0,0,0-.04-.026c-.272.43-.574.838-.82,1.288-.109.212-.215.427-.313.645-.052.12-.106.241-.155.364a1.149,1.149,0,0,0-.066.175c-.161.209-.316.422-.468.637-.338.476-.637.981-.981,1.454-.017.023.023.049.043.026.344-.445.731-.861,1.081-1.3s.7-.912,1.033-1.377.648-.912.975-1.368a13.56,13.56,0,0,0,.987-1.4.022.022,0,0,0-.037-.023Z" transform="translate(-166.786 -310.062)" fill="#37474f"/>
      <path id="Path_24786" data-name="Path 24786" d="M200.134,410.515c-.631-.551-1.308-1.058-1.973-1.569s-1.337-1.024-2.008-1.529c-1.345-1.013-2.688-2.034-4.047-3.026-.746-.548-1.5-1.084-2.275-1.592-.034-.02-.072.034-.04.06,1.279,1.093,2.639,2.088,3.981,3.1s2.7,2.008,4.062,3.012c.746.542,1.489,1.1,2.266,1.6C200.131,410.6,200.168,410.538,200.134,410.515Z" transform="translate(-148.403 -350.25)" fill="#37474f"/>
      <path id="Path_24787" data-name="Path 24787" d="M139.841,270.23c3.052,5.808,6.672,11.973,10.1,12.865,3.261.861,11.026-7.28,12.334-9.982.456-.929-5.691-5.005-6.563-4.323-1.638,1.294-5.229,5.384-5.737,5.281s-4.876-3.981-8.8-7.243C138.791,264.852,137.73,266.206,139.841,270.23Z" transform="translate(-111.98 -252.643)" fill="#ad6359"/>
      <path id="Path_24788" data-name="Path 24788" d="M195.93,241.959l-2.349,8.224a.287.287,0,0,0,.258.45l4.277.135a.694.694,0,0,0,.608-.425l2.349-8.224c.1-.241-.02-.442-.258-.447l-4.282-.132A.691.691,0,0,0,195.93,241.959Z" transform="translate(-151.078 -235.249)" fill="#a6a6a6"/>
      <path id="Path_24789" data-name="Path 24789" d="M197.747,242l-2.349,8.224c-.095.241.02.442.258.45l4.28.135a.694.694,0,0,0,.605-.424l2.349-8.224c.1-.241-.02-.442-.258-.447l-4.277-.135A.694.694,0,0,0,197.747,242Z" transform="translate(-152.387 -235.277)" fill="#dbdbdb"/>
      <path id="Path_24790" data-name="Path 24790" d="M205.909,243.482a.364.364,0,1,1-.155-.346.364.364,0,0,1,.155.346Z" transform="translate(-159.387 -236.341)" fill="#455a64"/>
      <path id="Path_24791" data-name="Path 24791" d="M220.429,257.937c.361-2.389.086-3.058,1.463-4.913.9-1.219.513-2.318-.906-1.635a7.335,7.335,0,0,0-3.525,5.255Z" transform="translate(-168.144 -242.123)" fill="#ad6359"/>
      <path id="Path_24792" data-name="Path 24792" d="M202.969,258.431a15.457,15.457,0,0,0,2.868-5.114,9.4,9.4,0,0,0-2.817-9.38c-.9-.892-2.814-1.526-1.876.465.668,1.414,1.52,2.111,1.758,3,0,0-2.533-.516-3.39.419a23.437,23.437,0,0,0-2.071,2.607,5.026,5.026,0,0,0,.453.43,4.217,4.217,0,0,0-.574,2.759Z" transform="translate(-153.768 -236.353)" fill="#ad6359"/>
      <path id="Path_24793" data-name="Path 24793" d="M201.853,256.722a14.1,14.1,0,0,0-2.613-3.772c-1.4-1.3-4.449-3.442-5.4-2.4-.7.766.4,1.681.4,1.681s-1.434-.617-1.928.212c-.436.757.45,1.414.45,1.414s-.941-.221-1.222.588c-.338.972,1.692,1.279,2.2,2.561C193.851,257.3,201.853,256.722,201.853,256.722Z" transform="translate(-149.629 -241.479)" fill="#ad6359"/>
      <path id="Path_24794" data-name="Path 24794" d="M204.884,259.505a7.615,7.615,0,0,0-3.835-2.435c-.04,0-.066.017-.034.032a18.623,18.623,0,0,1,3.858,2.418S204.89,259.514,204.884,259.505Z" transform="translate(-156.406 -246.324)" fill="#263238"/>
      <path id="Path_24795" data-name="Path 24795" d="M199.814,264.88a8.564,8.564,0,0,0-3.976-2.2c-.037,0-.063.017-.029.032a20.282,20.282,0,0,1,3.993,2.183S199.82,264.889,199.814,264.88Z" transform="translate(-152.693 -250.325)" fill="#263238"/>
      <path id="Path_24796" data-name="Path 24796" d="M153.24,269.534l6.411,6.789s-6.761,7.581-9.936,6.789-9.179-9.388-11.1-14.844c-1.334-3.781.76-3.17,2.969-1.319s7.974,6.445,8.226,6.379S153.24,269.534,153.24,269.534Z" transform="translate(-111.614 -252.329)" fill="#fea150"/>
      <path id="Path_24797" data-name="Path 24797" d="M151.055,283.058a2.707,2.707,0,0,1-1.365.069c-3.175-.792-9.179-9.385-11.1-14.844-.878-2.487-.264-3.072.889-2.648C142.934,270.767,147.538,277.645,151.055,283.058Z" transform="translate(-111.598 -252.343)" opacity="0.1"/>
      <path id="Path_24798" data-name="Path 24798" d="M192.456,292.54c-.926-.938-4.589-4.908-5.312-5.817-.052-.063-.023-.112.037-.052a73.7,73.7,0,0,1,5.312,5.831C192.513,292.526,192.479,292.563,192.456,292.54Z" transform="translate(-146.504 -267.416)" fill="#263238"/>
      <path id="Path_24799" data-name="Path 24799" d="M114.943,286.495s-21.022,3.844-21.131,3.729,2.315-22.852,9.448-26.7c1.147-.608,3.864-.967,5.028.221C111.609,267.128,115.218,286.188,114.943,286.495Z" transform="translate(-79.96 -250.528)" fill="#fea150"/>
      <path id="Path_24800" data-name="Path 24800" d="M115.251,333.2l-20.7,3.551c.077-.625.181-1.371.31-2.212l20.01-3.442C115.024,331.9,115.151,332.612,115.251,333.2Z" transform="translate(-80.489 -299.12)" fill="#ebebeb"/>
      <path id="Path_24801" data-name="Path 24801" d="M115.882,324.6l-19.6,3.365c.06-.373.126-.754.2-1.147l19.178-3.29C115.736,323.891,115.811,324.253,115.882,324.6Z" transform="translate(-81.723 -293.721)" fill="#ebebeb"/>
      <path id="Path_24802" data-name="Path 24802" d="M133.373,257.155c-1.173,0-2.668-2.163-3.086-3.729a23.785,23.785,0,0,1,.769-2.252c.247-.72.5-1.529.686-2.295l4.457,2.295a12.375,12.375,0,0,0-1.147,2.788,1.569,1.569,0,0,0-.043.318v.052C134.947,254.964,134.506,257.158,133.373,257.155Z" transform="translate(-105.974 -240.484)" fill="#ad6359"/>
      <path id="Path_24803" data-name="Path 24803" d="M140.144,251.459A12.333,12.333,0,0,0,139,254.247a1.568,1.568,0,0,0-.043.318.321.321,0,0,1,0,.049,2.531,2.531,0,0,1-.493-.089c-2.739-.729-2.693-4.328-2.627-5.295Z" transform="translate(-109.917 -240.733)" fill="#263238"/>
      <path id="Path_24804" data-name="Path 24804" d="M133.78,224.971c-.714,1.658-.356,6.718.743,7.96,1.595,1.8,4.478,2.269,6.072.287,1.549-1.916.964-8.5-.287-9.658A4.313,4.313,0,0,0,133.78,224.971Z" transform="translate(-108.203 -221.752)" fill="#ad6359"/>
      <path id="Path_24805" data-name="Path 24805" d="M150.084,243.511c0-.014-.023.017-.023.032.043.338.034.731-.261.861v.02C150.173,244.346,150.179,243.824,150.084,243.511Z" transform="translate(-119.892 -236.652)" fill="#263238"/>
      <path id="Path_24806" data-name="Path 24806" d="M148.666,242.39c-.548,0-.49,1.1.017,1.093S149.125,242.381,148.666,242.39Z" transform="translate(-118.806 -235.855)" fill="#263238"/>
      <path id="Path_24807" data-name="Path 24807" d="M157.7,243.14s.029.014.029.029c0,.338.072.726.384.823v.02C157.735,243.978,157.655,243.461,157.7,243.14Z" transform="translate(-125.518 -236.39)" fill="#263238"/>
      <path id="Path_24808" data-name="Path 24808" d="M157.991,241.842c.542-.069.643,1.021.141,1.084S157.538,241.9,157.991,241.842Z" transform="translate(-125.524 -235.462)" fill="#263238"/>
      <path id="Path_24809" data-name="Path 24809" d="M147.215,238.715a4.379,4.379,0,0,0,.416-.172.7.7,0,0,0,.39-.255.229.229,0,0,0-.052-.287.574.574,0,0,0-.574-.029.84.84,0,0,0-.468.39.247.247,0,0,0,.287.353Z" transform="translate(-117.823 -232.66)" fill="#263238"/>
      <path id="Path_24810" data-name="Path 24810" d="M157.8,238.06c-.152-.017-.287-.057-.439-.089a.74.74,0,0,1-.433-.178.229.229,0,0,1,0-.287.574.574,0,0,1,.574-.141.86.86,0,0,1,.531.287.247.247,0,0,1-.232.407Z" transform="translate(-124.937 -232.254)" fill="#263238"/>
      <path id="Path_24811" data-name="Path 24811" d="M150.014,254c.069.092.132.209.252.238a.91.91,0,0,0,.373-.032l.014.017a.459.459,0,0,1-.453.123.359.359,0,0,1-.221-.336C149.986,254,150,254,150.014,254Z" transform="translate(-120.02 -244.135)" fill="#263238"/>
      <path id="Path_24812" data-name="Path 24812" d="M151.382,241.216a1.147,1.147,0,0,0,.8.47,1.435,1.435,0,0,0,.416,0,.89.89,0,0,0,.152-.029.083.083,0,0,0,.066-.077h0l-.06-.723c.1.043.594.235.574.1a17.312,17.312,0,0,0-.631-3.468.032.032,0,0,0-.063.014c.08,1.084.35,2.148.447,3.238a2.054,2.054,0,0,0-.554-.138c-.02,0,.1.886.095.895a1.606,1.606,0,0,1-1.213-.31C151.388,241.165,151.362,241.19,151.382,241.216Z" transform="translate(-121.015 -232.341)" fill="#263238"/>
      <path id="Path_24813" data-name="Path 24813" d="M152.185,250.937a1.414,1.414,0,0,1-.574.447.64.64,0,0,1-.4.026c-.287-.072-.287-.333-.241-.556a1.606,1.606,0,0,1,.126-.344,1.879,1.879,0,0,0,1.084.427Z" transform="translate(-120.713 -241.646)" fill="#263238"/>
      <path id="Path_24814" data-name="Path 24814" d="M151.611,252.251a.639.639,0,0,1-.4.026c-.287-.072-.287-.333-.241-.556A.668.668,0,0,1,151.611,252.251Z" transform="translate(-120.713 -242.509)" fill="#ff9cbd"/>
      <path id="Path_24815" data-name="Path 24815" d="M129.9,227.4c1.319.1,2.008-1.466,1.721-2.734,0,0,3.5.49,3.692-2.323a3.2,3.2,0,0,0,2.424,1.331l.232.99c.361-.1.752-1.122-.123-1.93a3.354,3.354,0,0,0-1.079-2.255,1.922,1.922,0,0,0-2.062-.3,2.906,2.906,0,0,0-2.111-.536,2.467,2.467,0,0,0-1.833,1.331s-1.741.318-2.045,1.552a2.553,2.553,0,0,0,.327,2.065,1.78,1.78,0,0,0-.227,1.537A1.609,1.609,0,0,0,129.9,227.4Z" transform="translate(-104.794 -219.607)" fill="#263238"/>
      <path id="Path_24816" data-name="Path 24816" d="M142.68,228.25a3.439,3.439,0,0,1,0,.688,2.911,2.911,0,0,1-.132.665,1.784,1.784,0,0,1-.82,1,2.869,2.869,0,0,1-1.3.315c-.227,0-.456,0-.686-.023s-.456-.055-.686-.075c.224.054.45.1.677.155a5.578,5.578,0,0,0,.694.066,2.814,2.814,0,0,0,1.377-.287,1.862,1.862,0,0,0,.86-1.107A2.822,2.822,0,0,0,142.68,228.25Z" transform="translate(-112.232 -225.771)" fill="#263238"/>
      <path id="Path_24817" data-name="Path 24817" d="M153.575,230.17a3.606,3.606,0,0,1-1.058-.574,2.26,2.26,0,0,1-.41-.433,2.718,2.718,0,0,1-.287-.534,1.475,1.475,0,0,0,.186.6,1.6,1.6,0,0,0,.41.491,2.056,2.056,0,0,0,.548.318A1.9,1.9,0,0,0,153.575,230.17Z" transform="translate(-121.332 -226.042)" fill="#263238"/>
      <path id="Path_24818" data-name="Path 24818" d="M144.985,242.153a1.474,1.474,0,1,1,1.517-1.767h0a1.48,1.48,0,0,1-1.147,1.738,1.455,1.455,0,0,1-.37.029Zm.135-2.751a1.2,1.2,0,0,0-.318.026,1.274,1.274,0,1,0,.318-.026Z" transform="translate(-115.458 -233.584)" fill="#fea150"/>
      <path id="Path_24819" data-name="Path 24819" d="M157.49,241.29a1.367,1.367,0,0,1-1.1-1.4,1.721,1.721,0,0,1,.241-1.05.921.921,0,0,1,1.569-.109,1.79,1.79,0,0,1,.382,1.007,1.337,1.337,0,0,1-1,1.549Zm-.017-2.748H157.4a.789.789,0,0,0-.6.4,1.563,1.563,0,0,0-.212.932c.049.7.491,1.248.987,1.213s.861-.634.812-1.337a1.566,1.566,0,0,0-.336-.895.809.809,0,0,0-.577-.327Z" transform="translate(-124.587 -232.971)" fill="#fea150"/>
      <path id="Path_24820" data-name="Path 24820" d="M153.288,242.818l-.138-.141a.807.807,0,0,1,1.1-.132l-.135.143C153.767,242.368,153.308,242.8,153.288,242.818Z" transform="translate(-122.281 -235.845)" fill="#fea150"/>
      <path id="Path_24821" data-name="Path 24821" d="M131.431,244.249l-.181-.08c.037-.083.37-.826.806-.929a27.391,27.391,0,0,1,2.868-.057v.2a26.388,26.388,0,0,0-2.831.052C131.812,243.5,131.52,244.042,131.431,244.249Z" transform="translate(-106.662 -236.412)" fill="#fea150"/>
      <path id="Path_24822" data-name="Path 24822" d="M132.218,242.919s-.978-1.721-1.744-1.374-.129,2.742.7,3.138a.86.86,0,0,0,1.208-.364Z" transform="translate(-105.864 -235.22)" fill="#ad6359"/>
      <path id="Path_24823" data-name="Path 24823" d="M131.981,244.05s-.017.017,0,.023a2.2,2.2,0,0,1,1.013,1.477.479.479,0,0,0-.706-.2.02.02,0,0,0,0,.034.539.539,0,0,1,.574.238,2.719,2.719,0,0,1,.241.5c.023.055.12.034.106-.029v-.014A1.928,1.928,0,0,0,131.981,244.05Z" transform="translate(-107.178 -237.039)" fill="#263238"/>
      <path id="Path_24824" data-name="Path 24824" d="M133.365,267.165h-.014c-.049.958-.224,3.155-1.764,2.868a3.356,3.356,0,0,1-1.583-.975,12.025,12.025,0,0,1-2.057-2.954c-.014-.026-.049,0-.04.023a7.479,7.479,0,0,0,.749,1.6,7.391,7.391,0,0,0,1.262,1.575,3.457,3.457,0,0,0,1.692.969,1.262,1.262,0,0,0,1.38-.766A5.106,5.106,0,0,0,133.365,267.165Z" transform="translate(-104.277 -252.759)" fill="#263238"/>
      <path id="Path_24825" data-name="Path 24825" d="M93.8,268.143c-3.281,2.868-11.694,14.2-9.629,16.622s15.05.743,18.782-.6c1.113-.4-2.255-7.412-3.482-7.69-1.027-.235-6.571,1.661-6.695,1.34s.958-2.822,2.7-7.3C97.475,265.352,95.249,266.873,93.8,268.143Z" transform="translate(-72.856 -253.339)" fill="#ad6359"/>
      <path id="Path_24826" data-name="Path 24826" d="M157.41,291.286c2.613-.1,3.3.287,5.45-.981,1.417-.823,2.553-.273,1.646,1.173-1.483,2.361-4.827,3.2-6.069,3.155Z" transform="translate(-125.319 -269.753)" fill="#ad6359"/>
      <path id="Path_24827" data-name="Path 24827" d="M132.69,296.441a26.691,26.691,0,0,1,5.826-1.7,10.181,10.181,0,0,1,9.752,4.153c.861,1.076,1.3,3.21-.726,1.959-1.434-.886-2.085-1.885-3.018-2.249,0,0,.252,2.782-.861,3.594a25.568,25.568,0,0,1-3.052,1.913,5.446,5.446,0,0,1-.407-.539,4.553,4.553,0,0,1-3.032.287Z" transform="translate(-107.689 -273.115)" fill="#ad6359"/>
      <path id="Path_24828" data-name="Path 24828" d="M156.219,295.15a14.831,14.831,0,0,1,3.729,3.261c1.233,1.661,3.155,5.195,1.928,6.092-.906.66-1.761-.625-1.761-.625s.488,1.626-.462,2.042c-.861.379-1.466-.654-1.466-.654s.129,1.038-.774,1.245c-1.087.247-1.173-1.971-2.49-2.673C154.632,303.681,156.219,295.15,156.219,295.15Z" transform="translate(-123.519 -273.482)" fill="#ad6359"/>
      <path id="Path_24829" data-name="Path 24829" d="M165.644,310a8.249,8.249,0,0,1,2.157,4.417c0,.043-.026.069-.037.032a20.446,20.446,0,0,0-2.134-4.437S165.639,310,165.644,310Z" transform="translate(-131.181 -284.072)" fill="#263238"/>
      <path id="Path_24830" data-name="Path 24830" d="M159.964,314.554a9.235,9.235,0,0,1,1.89,4.535c0,.043-.029.069-.04.029a21.929,21.929,0,0,0-1.864-4.555S159.947,314.545,159.964,314.554Z" transform="translate(-127.13 -287.318)" fill="#263238"/>
      <path id="Path_24831" data-name="Path 24831" d="M173.8,308.377a6.944,6.944,0,0,1,1.979,1.362,11.3,11.3,0,0,0,1.013.792c.324.221.8.551,1.193.287a.7.7,0,0,0,.224-.671,3.419,3.419,0,0,0-.367-1s.014-.023.02,0a4.768,4.768,0,0,1,.422.9,1.147,1.147,0,0,1,0,.663c-.169.45-.723.456-1.1.287a3.609,3.609,0,0,1-.628-.384c-.192-.138-.379-.287-.574-.436-.373-.31-.726-.64-1.093-.955a10.61,10.61,0,0,0-1.147-.818.03.03,0,1,1,.054-.026Z" transform="translate(-136.965 -282.902)" fill="#263238"/>
      <path id="Path_24832" data-name="Path 24832" d="M174.778,311.559a26.155,26.155,0,0,0-1.48-3.112l.02-.017a13.9,13.9,0,0,1,1.669,2.992,4.663,4.663,0,0,1,.344,1.824.977.977,0,0,1-.906,1.007,1.147,1.147,0,0,1-.734-.2,2.246,2.246,0,0,1-.611-.7s0-.029.017-.017a1.634,1.634,0,0,0,1.225.754.8.8,0,0,0,.574-.238,1.03,1.03,0,0,0,.209-.694A4.71,4.71,0,0,0,174.778,311.559Z" transform="translate(-136.494 -282.952)" fill="#263238"/>
      <path id="Path_24833" data-name="Path 24833" d="M97.276,276.288l3.2,8.952s-16.241,1.968-17.333-.929S89.3,271.2,92.4,268.334c3.588-3.33,3.875-2.045,2.84,1.119-1.081,3.316-3.009,8.072-3.009,8.072Z" transform="translate(-72.276 -252.961)" fill="#fea150"/>
      <path id="Path_24834" data-name="Path 24834" d="M97.44,306.146a18.963,18.963,0,0,1,2.452-1.127,18.034,18.034,0,0,1,2.573-.731c.5-.112,1-.2,1.5-.287,0,0,.017.02,0,.023a23,23,0,0,0-2.582.72q-1.271.416-2.516.881c-.473.178-.935.373-1.4.574a.029.029,0,0,1-.026-.052Z" transform="translate(-82.539 -279.793)" fill="#263238"/>
      <path id="Path_24835" data-name="Path 24835" d="M120.048,291.694c-.083.014-4.569,1.013-4.718,1.064.023-.063,1.035-2.295,1.185-2.622l.043-.1.287-.433c.1-.146.227-.376.338-.574h0l-.361.548c-.055.086-.109.172-.161.261.1-.232.2-.465.287-.7.155-.373.287-.749.442-1.124h-.02c-.287.651-.617,1.291-.915,1.942S115.02,293,115.02,293s4.954-1.208,5.051-1.239a.035.035,0,0,0-.023-.066Z" transform="translate(-95.088 -268.397)" fill="#263238"/>
      <path id="Path_24836" data-name="Path 24836" d="M127.176,308.742c-.353-1-.694-2.008-1.084-2.986-.221-.559-.439-1.119-.663-1.678,0-.02-.046,0-.04,0,.313,1.015.628,2.034.99,3.035s.706,2.008,1.076,2.989q.318.843.683,1.669h.02C127.878,310.75,127.529,309.749,127.176,308.742Z" transform="translate(-102.482 -279.842)" fill="#263238"/>
      <path id="Path_24837" data-name="Path 24837" d="M104.251,330.181c-.132-.287-.287-.677-.439-.949-.037-.075-.092-.063-.063,0,.1.25.169.528.267.786-.229.02-.456.037-.683.063l-.789.083q-.774.08-1.549.146-1.566.129-3.138.192a60.094,60.094,0,0,1-6.31-.04c-.574-.037-1.173-.086-1.758-.152s-1.233-.146-1.721-.255c-.014,0-.02.02,0,.026a9.754,9.754,0,0,0,1.483.347c.528.077,1.056.143,1.586.189,1.058.095,2.12.132,3.181.141q3.155.026,6.31-.212c.588-.043,1.173-.095,1.761-.152l.886-.095A4.8,4.8,0,0,0,104.251,330.181Z" transform="translate(-75.857 -297.75)" fill="#263238"/>
      <rect id="Rectangle_38012" data-name="Rectangle 38012" width="20.449" height="0.915" transform="translate(28.87 32.233)" fill="#c7c7c7"/>
      <path id="Path_24838" data-name="Path 24838" d="M182.91,331.98v.915h-13.9l.7-.915Z" transform="translate(-133.592 -299.747)" fill="#a6a6a6"/>
      <path id="Path_24839" data-name="Path 24839" d="M178.81,303.776h17.9l2.59-12.626H181.4Z" transform="translate(-140.581 -270.629)" fill="#a6a6a6"/>
      <path id="Path_24840" data-name="Path 24840" d="M181.73,303.776h17.9l2.59-12.626h-17.9Z" transform="translate(-142.663 -270.629)" fill="#c7c7c7"/>
      <path id="Path_24841" data-name="Path 24841" d="M218.491,309.294a1.253,1.253,0,0,1-.878,1.285.824.824,0,0,1-.958-.886,1.262,1.262,0,0,1,.892-1.274C218.044,308.3,218.474,308.7,218.491,309.294Z" transform="translate(-167.569 -282.93)" fill="#fff"/>
      <path id="Path_24842" data-name="Path 24842" d="M288.833,411.738c-.267.694-13.108,16.264-13.975,16.55-.327.109-2.7-1.629-5.516-3.812-.608-.47-1.233-.961-1.864-1.463-4.1-3.25-8.378-6.792-8.378-6.792l8.576-10.441,8.14,7.079,1.79,1.555s7.567-3.763,8.551-3.981S289.1,411.043,288.833,411.738Z" transform="translate(-197.84 -352.379)" fill="#ad6359"/>
      <path id="Path_24843" data-name="Path 24843" d="M309.665,423.217c-.267.694-13.108,16.264-13.975,16.55-.4.129-3.826-2.461-7.38-5.275l8.318-10.154,1.79,1.555s7.587-3.763,8.571-3.981S309.932,422.523,309.665,423.217Z" transform="translate(-218.672 -363.858)" fill="#ebebeb"/>
      <path id="Path_24844" data-name="Path 24844" d="M314.3,423.217c-.267.694-13.108,16.264-13.975,16.55-.327.109-2.7-1.629-5.516-3.812l8.249-10.062s7.581-3.763,8.565-3.981S314.567,422.523,314.3,423.217Z" transform="translate(-223.308 -363.858)" fill="#fea150"/>
      <path id="Path_24845" data-name="Path 24845" d="M327.833,425.468c-2.217,2.556-10.914,13.08-12.908,15.776-.014.023,0,.034.017,0,2.252-2.487,10.868-13.083,12.939-15.756C327.922,425.445,327.882,425.414,327.833,425.468Z" transform="translate(-237.649 -366.399)" fill="#263238"/>
      <path id="Path_24846" data-name="Path 24846" d="M346.94,423.891a2.725,2.725,0,0,0-.651,2.088,2.639,2.639,0,0,0,.912,1.721c.017,0,.04-.017.026-.032a3.155,3.155,0,0,1-.255-3.763C346.988,423.9,346.957,423.871,346.94,423.891Z" transform="translate(-260.008 -365.29)" fill="#263238"/>
      <path id="Path_24847" data-name="Path 24847" d="M324.229,433.006a4.71,4.71,0,0,0-1.188,3.9c0,.052.086.034.095,0a18.771,18.771,0,0,1,1.236-3.8.087.087,0,1,0-.143-.1Z" transform="translate(-243.381 -371.768)" fill="#263238"/>
      <path id="Path_24848" data-name="Path 24848" d="M327.639,431.1a4.719,4.719,0,0,0-1.187,3.9c0,.052.089.034.1,0a18.647,18.647,0,0,1,1.233-3.8.087.087,0,1,0-.143-.1Z" transform="translate(-245.814 -370.406)" fill="#263238"/>
      <path id="Path_24849" data-name="Path 24849" d="M331.059,429.186a4.709,4.709,0,0,0-1.187,3.9c0,.055.086.034.095,0a18.708,18.708,0,0,1,1.236-3.8.087.087,0,0,0-.143-.1Z" transform="translate(-248.252 -369.044)" fill="#263238"/>
      <path id="Path_24850" data-name="Path 24850" d="M334.469,427.277a4.725,4.725,0,0,0-1.188,3.9c.014.052.089.034.1,0a18.76,18.76,0,0,1,1.233-3.8.088.088,0,0,0-.143-.1Z" transform="translate(-250.684 -367.683)" fill="#263238"/>
      <path id="Path_24851" data-name="Path 24851" d="M307.512,470.034a1.181,1.181,0,0,0,1.827,1.494A1.181,1.181,0,0,0,307.512,470.034Z" transform="translate(-232.171 -397.897)" fill="#fff"/>
      <path id="Path_24852" data-name="Path 24852" d="M318.717,421.091c-.86.169-1,1.188-.809,1.89a7.13,7.13,0,0,0,1.89,3.155c.02.02.043,0,.057,0a.163.163,0,0,0,.238-.118,11.734,11.734,0,0,0,.086-3.568C320.028,421.76,319.546,420.934,318.717,421.091Zm1.173,3.115c-.034.574-.1,1.147-.112,1.721a21.265,21.265,0,0,1-1.061-1.864,7.214,7.214,0,0,1-.39-.964c-.158-.511-.186-2.257,1.038-1.434C320.028,422.135,319.921,423.518,319.89,424.206Z" transform="translate(-239.728 -363.284)" fill="#263238"/>
      <path id="Path_24853" data-name="Path 24853" d="M312.965,440.849a12.022,12.022,0,0,0,2.008-2.954c.063-.1-.029-.212-.126-.235a.037.037,0,0,0-.04-.04,7.119,7.119,0,0,0-3.37,1.469c-.574.462-1.053,1.362-.439,2.008S312.443,441.314,312.965,440.849Zm-1.116.141c-1.48-.032-.442-1.434-.017-1.761a7.8,7.8,0,0,1,.878-.556,20.282,20.282,0,0,1,1.948-.9c-.324.476-.605.978-.909,1.466C313.375,439.82,312.664,441.007,311.85,440.99Z" transform="translate(-234.648 -375.086)" fill="#263238"/>
      <path id="Path_24854" data-name="Path 24854" d="M157.612,352.288l-9.532,11.3-28.747-20.469-2.834-2.008s-.815.536-2.039,1.193a20.683,20.683,0,0,1-6.388,2.364c-3.683.482-9.225.361-12.274-3.821-2.582-3.522-1.689-8.063-1.689-8.063l4.059-1.69s9.649-7.842,15.839-8.006c2.627-.075,6.431,1.965,9.947,4.087S157.612,352.288,157.612,352.288Z" transform="translate(-80.069 -293.403)" fill="#263238"/>
      <path id="Path_24855" data-name="Path 24855" d="M150.674,370.19s-.815.536-2.039,1.193c-2.12-2.6-6.617-7.334-6.755-7.5Z" transform="translate(-114.243 -322.497)" fill="#37474f"/>
      <path id="Path_24856" data-name="Path 24856" d="M105.118,341.885c-.574.39-1.147.8-1.7,1.2s-1.147.763-1.667,1.193-1.056.906-1.566,1.38c-.247.227-.49.456-.729.694a6.766,6.766,0,0,0-.7.737c-.017.026.017.054.043.04a7.542,7.542,0,0,0,.772-.614l.806-.668c.519-.43,1.047-.861,1.566-1.279s.99-.9,1.5-1.334,1.116-.895,1.689-1.322C105.135,341.9,105.135,341.876,105.118,341.885Z" transform="translate(-83.487 -306.81)" fill="#37474f"/>
      <path id="Path_24857" data-name="Path 24857" d="M285.342,421.081c-.574.608-1.113,1.262-1.652,1.9s-1.079,1.291-1.612,1.942c-1.07,1.3-2.146,2.6-3.2,3.915-.574.723-1.147,1.451-1.684,2.206-.023.032.032.072.057.043,1.147-1.233,2.2-2.547,3.264-3.849s2.134-2.61,3.181-3.927c.574-.723,1.165-1.434,1.692-2.2C285.414,421.09,285.365,421.05,285.342,421.081Z" transform="translate(-210.742 -363.283)" fill="#37474f"/>
      <path id="Path_24858" data-name="Path 24858" d="M196.638,402.829c-1.46-1.179-4.782-3.485-6.3-4.589s-3.012-2.206-4.541-3.276c-.439-.307-.883-.608-1.325-.909s-.9-.574-1.334-.895c-.026-.017-.049.026-.026.043.4.287.772.62,1.162.921s.743.574,1.119.86c.734.556,1.474,1.1,2.214,1.649q2.246,1.669,4.535,3.287c.861.608,3.54,2.415,4.426,2.995C196.624,402.953,196.687,402.864,196.638,402.829Z" transform="translate(-143.645 -343.376)" fill="#37474f"/>
      <path id="Path_24859" data-name="Path 24859" d="M204.368,344.293c-1.348-1.147-4.423-3.35-5.837-4.412s-2.868-2.154-4.3-3.221l-4.257-3.161c-1.383-1.024-2.757-2.065-4.217-2.974-.8-.5-1.621-.961-2.464-1.377a15.946,15.946,0,0,0-2.553-1.078c-.026,0-.04.029-.017.043.72.413,1.477.763,2.209,1.165s1.434.809,2.128,1.245c1.449.9,2.817,1.928,4.191,2.94,2.854,2.105,5.7,4.219,8.576,6.31,1.606,1.147,4.81,3.56,6.483,4.632C204.357,344.414,204.417,344.334,204.368,344.293Z" transform="translate(-141.935 -296.959)" fill="#37474f"/>
    </g>
  </g>
</svg>
