<svg id="google" xmlns="http://www.w3.org/2000/svg" width="17.998" height="17.998" viewBox="0 0 17.998 17.998">
  <path id="Path_10117" data-name="Path 10117" d="M275.059,211.479h-7.341a.587.587,0,0,0-.587.587v2.345a.587.587,0,0,0,.587.587h4.134a5.519,5.519,0,0,1-2.376,2.784l1.763,3.052a8.824,8.824,0,0,0,4.5-7.717,5.949,5.949,0,0,0-.1-1.152A.59.59,0,0,0,275.059,211.479Z" transform="translate(-257.741 -204.045)" fill="#167ee6"/>
  <path id="Path_10118" data-name="Path 10118" d="M42.2,336.588a5.477,5.477,0,0,1-4.738-2.741l-3.051,1.759A8.992,8.992,0,0,0,46.7,338.9v0l-1.763-3.052A5.437,5.437,0,0,1,42.2,336.588Z" transform="translate(-33.201 -322.111)" fill="#12b347"/>
  <path id="Path_10119" data-name="Path 10119" d="M260.5,393.835v0l-1.763-3.052a5.437,5.437,0,0,1-2.737.74v3.521A8.984,8.984,0,0,0,260.5,393.835Z" transform="translate(-247.001 -377.042)" fill="#0f993e"/>
  <path id="Path_10120" data-name="Path 10120" d="M3.521,132.614a5.437,5.437,0,0,1,.74-2.737L1.21,128.119a8.958,8.958,0,0,0,0,8.991l3.051-1.759A5.437,5.437,0,0,1,3.521,132.614Z" transform="translate(0 -123.615)" fill="#ffd500"/>
  <path id="Path_10121" data-name="Path 10121" d="M42.2,3.521A5.452,5.452,0,0,1,45.678,4.77a.585.585,0,0,0,.787-.035l1.662-1.662a.591.591,0,0,0-.034-.865A8.979,8.979,0,0,0,34.411,4.5l3.051,1.759A5.477,5.477,0,0,1,42.2,3.521Z" transform="translate(-33.201 0)" fill="#ff4b26"/>
  <path id="Path_10122" data-name="Path 10122" d="M259.478,4.77a.585.585,0,0,0,.787-.035l1.662-1.662a.591.591,0,0,0-.034-.865A8.972,8.972,0,0,0,256,0V3.521A5.452,5.452,0,0,1,259.478,4.77Z" transform="translate(-247.001)" fill="#d93f21"/>
</svg>
