<svg xmlns="http://www.w3.org/2000/svg" width="18" height="18" viewBox="0 0 18 18">
  <path id="facebook" d="M15.576,0H2.428A2.426,2.426,0,0,0,0,2.426V15.574A2.426,2.426,0,0,0,2.428,18H8.912l.011-6.432H7.252a.394.394,0,0,1-.394-.393L6.85,9.1a.394.394,0,0,1,.394-.4H8.913v-2a3.273,3.273,0,0,1,3.494-3.591h1.7a.394.394,0,0,1,.394.394V5.254a.394.394,0,0,1-.394.394H13.064c-1.128,0-1.346.536-1.346,1.323V8.706H14.2a.394.394,0,0,1,.392.441l-.246,2.073a.394.394,0,0,1-.392.348H11.729L11.718,18h3.859A2.426,2.426,0,0,0,18,15.575V2.426A2.426,2.426,0,0,0,15.576,0Z" transform="translate(-0.002)" fill="#475993"/>
</svg>
